<svg version="1.1" xmlns="http://www.w3.org/2000/svg" xmlns:xlink="http://www.w3.org/1999/xlink"
                  width="300" height="168" viewBox="0 0 300 168"><path stroke="none" opacity="0.4664052287581699 " fill-rule="evenodd" d="M249.5,0.25C249.5 0.11249999999999999, 260.75 0.0, 274.5 0.0L299.5 0.0 300.0,84.0000000000002L300.5 168.0000000000004 275.5,168.00000000000034L250.5 168.00000000000028 250.0,84.25000000000014C249.725 38.18750000000006, 249.5 0.3875, 249.5 0.25z"/><path stroke="none" opacity="0.3994771241830065 " fill-rule="evenodd" d="M199.5,0.25C199.5 0.11249999999999999, 222.0 0.0, 249.5 0.0L299.5 0.0 300.0,83.99999999999996L300.5 167.99999999999991 250.5,167.99999999999994L200.5 167.99999999999997 200.0,84.24999999999999C199.725 38.1875, 199.5 0.3875, 199.5 0.25z"/><path stroke="none" opacity="0.3325490196078431 " fill-rule="evenodd" d="M199.5,0.25C199.5 0.11249999999999999, 222.0 0.0, 249.5 0.0L299.5 0.0 300.0,83.99999999999996L300.5 167.99999999999991 250.5,167.99999999999994L200.5 167.99999999999997 200.0,84.24999999999999C199.725 38.1875, 199.5 0.3875, 199.5 0.25z"/><path stroke="none" opacity="0.26562091503267976 " fill-rule="evenodd" d="M149.5,0.25C149.5 0.11249999999999999, 183.25 0.0, 224.5 0.0L299.5 0.0 300.0,83.99999999999991L300.5 167.99999999999983 225.5,167.9999999999999L150.5 167.99999999999991 150.0,84.24999999999996C149.725 38.18749999999997, 149.5 0.3875, 149.5 0.25z"/><path stroke="none" opacity="0.19869281045751636 " fill-rule="evenodd" d="M99.5,0.25C99.5 0.11249999999999999, 144.5 0.0, 199.5 0.0L299.5 0.0 300.0,83.99999999999993L300.5 167.99999999999986 200.5,167.9999999999999L100.5 167.99999999999991 100.0,84.24999999999996C99.725 38.18749999999997, 99.5 0.3875, 99.5 0.25z"/><path stroke="none" opacity="0.13176470588235295 " fill-rule="evenodd" d="M99.5,0.25C99.5 0.11249999999999999, 144.5 0.0, 199.5 0.0L299.5 0.0 300.0,83.99999999999993L300.5 167.99999999999986 200.5,167.9999999999999L100.5 167.99999999999991 100.0,84.24999999999996C99.725 38.18749999999997, 99.5 0.3875, 99.5 0.25z"/><path stroke="none" opacity="0.06483660130718955 " fill-rule="evenodd" d="M49.5,0.25C49.5 0.11249999999999999, 105.75 0.0, 174.5 0.0L299.5 0.0 300.0,84.00000000000031L300.5 168.00000000000063 175.5,168.00000000000034L50.5 168.00000000000006 50.0,84.25000000000003C49.725 38.1875, 49.5 0.3875, 49.5 0.25z"/></svg>