<svg version="1.1" xmlns="http://www.w3.org/2000/svg" xmlns:xlink="http://www.w3.org/1999/xlink"
                  width="299" height="168" viewBox="0 0 299 168"><path stroke="none" opacity="0.4664052287581699 " fill-rule="evenodd" d="M95.5,53.250000000000014C95.5 53.11250000000002, 96.23952027961285 53.000000000000014, 97.14337839913966 53.000000000000014C97.94878235478511 53.00000000000001, 112.62995972182901 67.8652707839255, 119.5568317713032 75.69450502846053C120.34186386691643 76.58180309346534, 123.38378923959965 73.81708065323824, 131.38467288856867 64.94450502846051C137.30872802884792 58.37502726280722, 142.68315373176148 52.99999999999991, 143.32784111726548 52.999999999999815C144.18276508726376 52.999999999999694, 144.63532078176817 60.30732221548026, 145.0 79.99999999999993L145.5 107.00000000000021 140.5,107.00000000000017L135.5 107.00000000000011 135.0,92.25000000000006L134.5 77.5 127.44957330658809,84.25350475473246L120.39914661317617 91.00700950946491 113.94957330658809,84.25350475473246C110.40230798796463 80.5390771396296, 107.275 77.5, 107.0 77.5C106.725 77.5, 106.725 84.1375, 107.0 92.25L107.5 107.0 102.0,107.0L96.5 107.00000000000001 96.0,80.25C95.725 65.5375, 95.5 53.3875, 95.5 53.250000000000014zM71.0,54.18467933491688C73.475 54.01125296912116, 77.3 54.39670378879329, 79.5 55.04123671196605C82.831238646799 56.01718806778761, 83.33280966169974 56.487882482206544, 82.5 57.85655737704917C81.95 58.76045081967213, 81.725 60.85, 82.0 62.5C82.46164290563476 65.26985743380855, 82.3082145281738 65.45713030629767, 80.0 64.9411764705882C74.19336611650098 63.643223014276586, 69.31677190312126 63.80181076557137, 67.46623414921856 65.34877686843907C64.85070737986173 67.53523928716305, 64.61823320824288 68.15250758843763, 65.5 70.56954614678358C66.26018265177086 72.65330661258028, 68.17872143760394 74.0528309139554, 73.5 76.40533872688476C77.35 78.10740242709814, 81.4 80.625, 82.5 82.0C83.6 83.375, 85.15624999999999 85.8125, 85.95833333333331 87.41666666666666C87.0694444444444 89.63888888888884, 87.18849206349202 91.30555555555557, 86.45833333333331 94.41666666666666C85.93124999999999 96.6625, 84.375 99.80661764705883, 83.0 101.40359477124186C81.625 103.00057189542488, 79.26250000000002 104.91307189542488, 77.75000000000003 105.65359477124187C76.23750000000004 106.39411764705886, 72.39642857142863 107.00000000000003, 69.21428571428577 107.00000000000003C66.0321428571429 107.00000000000003, 61.2897257955315 106.28216824644552, 58.67558113292709 105.40481832543445L53.922590837282726 103.80963665086887 54.71129541864136,99.65481832543443C55.14508293838861 97.3696682464455, 55.78422701949861 95.17221448467966, 56.1316155988858 94.77158774373258C56.479004178272994 94.3709610027855, 58.39793274970159 94.70846100278551, 60.39590131317157 95.5215877437326C62.39386987664155 96.33471448467968, 65.98285714285723 97.00000000000003, 68.37142857142862 97.00000000000003C70.82033070899953 97.00000000000001, 77.5 93.42238482217344, 77.5 92.11075859118779C77.5 90.87693024362035, 70.90677428937617 85.7686428337996, 66.63300750567291 83.69124993521379C62.709853377552804 81.78428286417669, 58.825 79.16112873605658, 58.0 77.86201853939134C57.175 76.5629083427261, 56.05 73.69191176470588, 55.5 71.48202614379085C54.631413810242115 67.99206954147934, 54.828534525605285 66.81992951313651, 57.0 62.56256763190925C58.757778581839695 59.11627773312648, 60.539109985424425 57.191838278327836, 63.0 56.080541488118406C64.925 55.211243669653285, 68.525 54.3581057007126, 71.0 54.18467933491688zM156.5,54.24999999999999C156.5 54.11249999999999, 158.75 54.0, 161.5 54.000000000000014L166.5 54.00000000000004 167.0,80.49999999999991L167.5 106.99999999999977 162.5,106.9999999999998L157.5 106.99999999999982 157.0,80.74999999999991C156.725 66.31249999999996, 156.5 54.387499999999996, 156.5 54.24999999999999zM179.5,54.24999999999999C179.5 54.11249999999999, 181.75 53.99999999999997, 184.5 53.99999999999996L189.5 53.99999999999993 190.0,75.50000000000001L190.5 97.0000000000001 198.5,97.00000000000007L206.5 97.00000000000004 207.0,102.00000000000003L207.5 107.00000000000003 194.0,107.00000000000003L180.5 107.00000000000003 180.0,80.75000000000001C179.725 66.3125, 179.5 54.387499999999996, 179.5 54.24999999999999zM216.5,54.249999999999986C216.5 54.112499999999976, 222.35 53.99999999999997, 229.5 53.99999999999997L242.5 53.999999999999964 243.0,59.0L243.5 64.00000000000003 235.0,64.00000000000003L226.5 64.00000000000001 227.0,70.0L227.5 75.99999999999997 234.0,75.99999999999996L240.5 75.99999999999994 241.0,80.78488217377979L241.5 85.56976434755964 234.83466896981366,85.53488217377982L228.16933793962733 85.5 227.33466896981366,91.25L226.5 97.00000000000001 235.0,97.00000000000001L243.5 97.00000000000001 244.0,102.0L244.5 107.0 231.0,106.99999999999999L217.5 106.99999999999997 217.0,80.74999999999999C216.725 66.3125, 216.5 54.387499999999996, 216.5 54.249999999999986z"/><path stroke="none" opacity="0.3994771241830065 " fill-rule="evenodd" d="M95.5,53.09712591384019C95.5 51.584429545249485, 104.48586420010311 58.965604206284766, 109.99059466019415 64.99999999999997C115.76042172330094 71.32499999999996, 120.5755988552983 76.49999999999994, 120.69098828685496 76.49999999999994C120.80637771841162 76.49999999999994, 125.67353081349529 71.21249999999995, 131.50688405370755 64.74999999999996C137.34023729391984 58.287499999999966, 142.65006016192245 52.99999999999991, 143.30649042704675 52.999999999999815C144.18935480646707 52.999999999999694, 144.63013938076938 60.027526561546615, 145.0 79.99999999999987L145.5 107.00000000000009 139.7327586206896,107.00000000000004L133.96551724137922 107.0 134.7327586206896,92.49999999999999C135.2360422048191 82.98850574712625, 135.15596512088783 77.99999999999997, 134.5 77.99999999999996C133.95 77.99999999999994, 130.58616412213738 80.91383587786255, 127.02480916030532 84.47519083969462L120.54961832061066 90.95038167938931 114.02480916030532,84.72519083969465L107.5 78.5 107.5,92.75L107.5 107.00000000000001 102.0,107.00000000000001L96.5 107.00000000000001 96.0,80.25C95.725 65.5375, 95.5 53.318706661228084, 95.5 53.09712591384019zM70.5,54.43467933491691C73.25 54.12375296912118, 77.3 54.39670378879329, 79.5 55.04123671196605C82.831238646799 56.01718806778761, 83.33280966169974 56.487882482206544, 82.5 57.85655737704917C81.95 58.76045081967213, 81.725 61.075, 82.0 63.0L82.5 66.5 77.21769580522147,64.80720152537401C73.87026545038455 63.734464176361456, 71.1230639897215 63.408462936362774, 69.71769580522147 63.917201525374026C68.49796311234967 64.35874068641832, 66.84107142857142 65.71514285714287, 66.03571428571428 66.93142857142857C64.99652888091963 68.50085199252332, 64.85137267767877 69.70542765735127, 65.53571428571428 71.08066793541653C66.06607142857142 72.1464638713242, 69.40842552617374 74.39346294618349, 72.96316783594168 76.07399921288163C76.51791014570958 77.75453547957976, 80.5754101457096 80.18787776578519, 81.97983450260836 81.48142651556034C83.38425885950713 82.77497526533551, 85.19060606060611 85.4765151515152, 85.99393939393943 87.48484848484853C87.07425364758701 90.1856341189675, 87.2000970982299 91.9648001452981, 86.47727272727275 94.31818181818184C85.93977272727274 96.06818181818183, 84.825 98.85, 84.0 100.5C83.15942028985509 102.18115942028983, 80.8514492753623 104.2693236714976, 78.75000000000003 105.25000000000001C76.53659611992948 106.28292181069962, 72.62925170068038 107.00000000000003, 69.21428571428577 107.00000000000003C66.0321428571429 107.00000000000003, 61.204717484008555 106.25363805970152, 58.48667377398722 105.34141791044777C54.40306290010378 103.9708909733225, 53.714563408347566 103.40644544404489, 54.522388059701484 102.09141791044776C55.06007462686567 101.21613805970149, 55.275 98.7, 55.0 96.5L54.5 92.5 59.0,94.74999999999997C61.54901960784312 96.02450980392153, 65.34259259259261 96.99999999999996, 67.75000000000003 96.99999999999996C70.08750000000003 96.99999999999996, 73.01250000000003 96.43749999999997, 74.25000000000003 95.74999999999997C76.02966101694915 94.76129943502825, 76.3954802259887 93.8728813559322, 76.0 91.5C75.725 89.85, 74.825 88.05, 74.0 87.5C73.175 86.95, 70.40034031734287 85.69581643583557, 67.83408959409526 84.71292541296793C65.26783887084765 83.73003439010031, 61.66783887084765 81.48003439010031, 59.83408959409526 79.71292541296793C58.00034031734287 77.94581643583557, 56.05 74.8125, 55.5 72.75000000000001C54.74050632911393 69.90189873417724, 54.860759493670884 67.97784810126585, 56.0 64.75000000000001C56.825 62.41250000000001, 58.829545454545446 59.2625, 60.45454545454544 57.75C62.07954545454544 56.2375, 63.879545454545436 55.000000000000014, 64.45454545454544 55.00000000000003C65.02954545454546 55.00000000000005, 67.75 54.745605700712645, 70.5 54.43467933491691zM156.5,54.24999999999999C156.5 54.11249999999999, 158.75 54.0, 161.5 54.000000000000014L166.5 54.00000000000004 167.0,80.49999999999991L167.5 106.99999999999977 162.5,106.9999999999998L157.5 106.99999999999982 157.0,80.74999999999991C156.725 66.31249999999996, 156.5 54.387499999999996, 156.5 54.24999999999999zM179.5,54.24999999999999C179.5 54.11249999999999, 181.75 53.99999999999997, 184.5 53.99999999999996L189.5 53.99999999999993 190.0,75.50000000000001L190.5 97.0000000000001 198.5,97.00000000000007L206.5 97.00000000000004 207.0,102.00000000000003L207.5 107.00000000000003 194.0,107.00000000000003L180.5 107.00000000000003 180.0,80.75000000000001C179.725 66.3125, 179.5 54.387499999999996, 179.5 54.24999999999999zM216.5,54.249999999999986C216.5 54.112499999999976, 222.35 53.99999999999997, 229.5 53.99999999999997L242.5 53.999999999999964 243.0,59.0L243.5 64.00000000000003 235.0,64.00000000000001L226.5 64.0 227.32261410788357,69.75L228.14522821576716 75.5 234.32261410788357,75.617435773848L240.5 75.734871547696 241.0,80.867435773848L241.5 86.00000000000001 234.0,86.0L226.5 85.99999999999999 227.0,91.5L227.5 97.0 235.5,97.0L243.5 97.00000000000001 244.0,102.0L244.5 107.0 231.0,106.99999999999999L217.5 106.99999999999997 217.0,80.74999999999999C216.725 66.3125, 216.5 54.387499999999996, 216.5 54.249999999999986z"/><path stroke="none" opacity="0.3325490196078431 " fill-rule="evenodd" d="M95.5,53.09712591384019C95.5 51.60090507794512, 104.40691249152059 58.83971379167931, 109.83815063564404 64.75C115.52413348524826 70.93749999999999, 120.47413348524826 75.99999999999999, 120.83815063564404 75.99999999999997C121.20216778603981 75.99999999999997, 126.0 70.82499999999999, 131.5 64.49999999999999C137.0 58.175, 142.175 53.0, 143.0 52.99999999999999C144.28395061728395 52.99999999999998, 144.57201646090536 56.88888888888886, 145.0 80.00000000000003L145.5 107.00000000000009 139.5,107.00000000000004L133.5 107.0 134.26724137931032,92.49999999999997C134.69502067335222 84.41545199350004, 134.65169930391713 77.99999999999996, 134.1693278016785 77.99999999999994C133.69349257536032 77.99999999999994, 130.4917634895266 80.97033211766109, 127.05437427760356 84.60073803924693L120.80457571047073 91.20147607849393 114.15228785523536,84.85073803924696L107.5 78.5 107.5,92.75L107.5 107.00000000000001 102.0,107.00000000000001L96.5 107.00000000000001 96.0,80.25C95.725 65.5375, 95.5 53.318706661228084, 95.5 53.09712591384019zM73.57533333333333,54.54133333333334C77.46676666666666 54.564066666666676, 81.24615855855855 55.05055315315318, 81.97398198198198 55.622414414414465C82.97455281286227 56.408577210106145, 83.07812512310748 57.75870067879078, 82.39864864864865 61.158183884819444C81.56461883392157 65.33091164665994, 81.32922165320726 65.59473139718187, 79.12500000000004 64.82710280373834C77.81875000000007 64.37219626168226, 74.8393145161291 64.00000000000003, 72.50403225806456 64.00000000000003C69.15563013424163 64.00000000000003, 67.8725504433458 64.5196059241861, 66.4343757695149 66.45801526717558C64.81217208341522 68.64446371365774, 64.7702957831996 69.16018240615477, 66.05534351145039 71.12590664097746C66.84990458015267 72.34133849962195, 70.25664356632453 74.6338553244848, 73.62587459183229 76.220388474006C76.99510561734004 77.80692162352722, 81.04510561734004 80.54387050531636, 82.62587459183229 82.3024971002041C84.20664356632453 84.06112369509185, 85.95 86.72812499999999, 86.5 88.22916666666666C87.16666666666667 90.0486111111111, 87.16666666666667 92.21527777777776, 86.5 94.72916666666666C85.95 96.803125, 84.69361888111891 99.70745262801712, 83.70804195804202 101.18322806226027C82.72246503496513 102.6590034965034, 80.24746503496513 104.63578921078911, 78.20804195804202 105.57608520511741C76.1686188811189 106.51638119944569, 72.25 107.28571428571428, 69.5 107.28571428571428C66.75 107.28571428571426, 62.7 106.86986607142858, 60.5 106.36160714285717C58.3 105.85334821428577, 55.8965909090909 104.98110795454551, 55.15909090909088 104.42329545454548C54.14175551187181 103.65382779181832, 54.021100914224675 102.20254493261955, 54.65909090909088 98.4090909090909L55.5 93.40909090909093 58.48569794050346,94.82239442479721C60.12783180778035 95.59971135843566, 63.952831807780356 96.45404126865752, 66.98569794050346 96.72090533640136C71.41975485024203 97.11106118626672, 72.89179759762982 96.8431012160342, 74.5 95.35305636614962C76.10212405662405 93.8686432749053, 76.31056739185864 93.00265507078007, 75.54778053915986 91.0C74.92601394153846 89.36758587911861, 72.05900920664916 87.11186259341024, 67.28633690604673 84.5C63.266263611296594 82.3, 58.74476236867466 78.925, 57.238556366886876 77.0C55.29357393885219 74.51422370544086, 54.5 72.34088719378188, 54.5 69.5C54.5 66.7689817682712, 55.37411311914324 64.2310182317288, 57.25532128514057 61.5C58.77074799196787 59.3, 61.470747991967876 56.825, 63.25532128514057 56.0C65.21081270285748 55.095985339583166, 69.31119662622051 54.516422707135185, 73.57533333333333 54.54133333333334zM156.5,54.249999999999986C156.5 54.11249999999998, 158.975 53.99999999999998, 162.0 53.99999999999998L167.5 53.99999999999998 168.0,80.49999999999994L168.5 106.99999999999991 163.0,106.99999999999991L157.5 106.99999999999991 157.0,80.74999999999996C156.725 66.31249999999997, 156.5 54.387499999999996, 156.5 54.249999999999986zM179.5,54.24999999999999C179.5 54.11249999999999, 181.75 53.99999999999997, 184.5 53.99999999999996L189.5 53.99999999999993 190.0,75.50000000000001L190.5 97.0000000000001 198.5,97.00000000000007L206.5 97.00000000000004 207.0,102.00000000000003L207.5 107.00000000000003 194.0,107.00000000000003L180.5 107.00000000000003 180.0,80.75000000000001C179.725 66.3125, 179.5 54.387499999999996, 179.5 54.24999999999999zM216.5,54.249999999999986C216.5 54.112499999999976, 222.35 53.99999999999997, 229.5 53.99999999999997L242.5 53.999999999999964 243.0,59.0L243.5 64.00000000000003 235.0,64.00000000000003L226.5 64.00000000000003 227.0,69.50000000000001L227.5 75.0 234.0,74.99999999999999L240.5 74.99999999999997 241.0,80.5L241.5 86.00000000000001 234.0,86.0L226.5 85.99999999999999 227.0,91.5L227.5 97.0 235.5,97.0L243.5 97.00000000000001 244.0,102.0L244.5 107.0 231.0,106.99999999999999L217.5 106.99999999999997 217.0,80.74999999999999C216.725 66.3125, 216.5 54.387499999999996, 216.5 54.249999999999986z"/><path stroke="none" opacity="0.26562091503267976 " fill-rule="evenodd" d="M95.5,53.25C95.5 53.1125, 96.40967406982885 53.0, 97.521497932953 53.00000000000001C98.83427259897687 53.000000000000014, 103.16377840227486 57.031820877392185, 109.87058740196017 64.5C115.55076274678996 70.82499999999999, 120.4910886769611 75.99999999999999, 120.84908946900717 76.0C121.20709026105322 76.0, 126.0 70.825, 131.5 64.5C137.0 58.175000000000004, 142.175 53.0, 143.0 52.99999999999999C144.28395061728395 52.99999999999998, 144.57201646090536 56.88888888888886, 145.0 80.00000000000003L145.5 107.00000000000009 140.0,107.00000000000006L134.5 107.00000000000003 134.0,92.75000000000001L133.5 78.5 127.5,84.75C124.2 88.18749999999999, 121.22550572779343 90.99999999999999, 120.89001272842984 90.99999999999997C120.55451972906624 90.99999999999996, 117.40451972906625 88.18749999999997, 113.89001272842984 84.74999999999997L107.5 78.5 107.5,92.75L107.5 107.00000000000001 102.0,107.00000000000001L96.5 107.00000000000001 96.0,80.25C95.725 65.5375, 95.5 53.3875, 95.5 53.25zM73.0,54.5C77.125 54.5, 81.15067567567567 55.00320945945948, 81.94594594594594 55.618243243243285C83.09372884883086 56.50589777795106, 83.19683195717907 57.65978536904423, 82.44594594594594 61.21403763576665C81.5681452132594 65.36902946835934, 81.3289068395666 65.63065841212308, 79.12500000000004 64.84579439252337C77.81875000000007 64.38060747663553, 74.89375000000005 64.00000000000003, 72.62500000000001 64.00000000000003C70.02570921985806 64.00000000000004, 67.94519664732428 64.6208513708514, 66.99999999999997 65.6785714285715C65.86662454635628 66.94687253145854, 65.73969809870283 67.985642079468, 66.48069578708687 69.92857142857147C67.08678092114445 71.5177539772834, 69.56968058967813 73.64595369316939, 72.98069578708687 75.5C76.0163131041891 77.15, 79.625 79.23292553191492, 81.0 80.12872340425537C82.375 81.0245212765958, 84.4 83.49952127659581, 85.5 85.62872340425537C87.18341898526577 88.88721366350114, 87.34665607098812 90.21230728315203, 86.53125000000003 94.0C85.99843750000005 96.475, 84.64843750000007 99.79374999999999, 83.53125000000009 101.37499999999997C82.41406250000009 102.95624999999995, 80.15000000000006 104.95084538702106, 78.50000000000004 105.8074341933802C76.82446012401113 106.67728189179262, 72.85107975197779 107.39469779229864, 69.5 107.43243419338023C65.87967137267036 107.47320259736927, 61.54737921933347 106.7528886740386, 58.57674680691211 105.61626596543951L53.65349361382422 103.73253193087902 54.57674680691211,98.61626596543951C55.08453606311045 95.80231968444778, 55.57959905660377 93.40395047169812, 55.67688679245282 93.28655660377359C55.77417452830187 93.16916273584907, 57.79917452830187 93.95666273584908, 60.17688679245282 95.03655660377362C62.55459905660377 96.11645047169814, 66.3 97.00000000000003, 68.5 97.00000000000003C71.32051282051282 97.00000000000001, 73.08974358974359 96.36111111111113, 74.5 94.83333333333334C76.06140350877193 93.14181286549709, 76.28070175438596 92.20979532163743, 75.5 90.58333333333334C74.95 89.4375, 71.28282146761774 86.7, 67.35071437248388 84.5C63.418607277350006 82.3, 58.918607277350006 78.925, 57.35071437248388 77.0C55.274880937919356 74.45136970188797, 54.5 72.41272034069947, 54.5 69.5C54.5 67.07607852478944, 55.378431559453134 64.12093129080924, 56.72941064328121 62.0C57.95558649708589 60.075, 60.43058649708588 57.6, 62.22941064328121 56.5C64.73386962427912 54.968496831708336, 67.25686311890627 54.5, 73.0 54.5zM156.5,54.249999999999986C156.5 54.11249999999998, 158.975 53.99999999999998, 162.0 53.99999999999998L167.5 53.99999999999998 168.0,80.49999999999994L168.5 106.99999999999991 163.0,106.99999999999991L157.5 106.99999999999991 157.0,80.74999999999996C156.725 66.31249999999997, 156.5 54.387499999999996, 156.5 54.249999999999986zM179.5,54.24999999999999C179.5 54.11249999999999, 181.75 53.999999999999886, 184.5 53.999999999999766L189.5 53.999999999999545 190.2696003074559,75.24999999999977L191.03920061491183 96.5 198.7696003074559,96.70708479898408L206.5 96.91416959796815 207.0,101.95708479898408L207.5 107.00000000000003 194.0,107.00000000000003L180.5 107.00000000000003 180.0,80.75000000000001C179.725 66.3125, 179.5 54.387499999999996, 179.5 54.24999999999999zM216.5,54.249999999999986C216.5 54.112499999999976, 222.35 53.99999999999997, 229.5 53.99999999999997L242.5 53.999999999999964 243.0,58.78874236854292L243.5 63.577484737085875 235.83173076923077,64.03874236854294L228.16346153846155 64.5 227.33173076923077,69.74999999999999L226.5 74.99999999999997 233.5,74.99999999999997L240.5 74.99999999999997 241.0,80.5L241.5 86.00000000000001 234.0,86.0L226.5 86.0 227.3325242718445,91.25L228.165048543689 96.5 235.8325242718445,96.69161011756506L243.5 96.88322023513014 244.0,101.94161011756506L244.5 107.0 231.0,106.99999999999999L217.5 106.99999999999997 217.0,80.74999999999999C216.725 66.3125, 216.5 54.387499999999996, 216.5 54.249999999999986z"/><path stroke="none" opacity="0.19869281045751636 " fill-rule="evenodd" d="M69.4090909090909,53.42045454545455C69.90909090909092 53.10170454545454, 73.28409090909092 53.39854189485212, 76.9090909090909 54.080093099671394L83.5 55.31927710843371 82.5,60.409638554216855C81.95 63.209337349397586, 81.41118421052632 65.60065789473686, 81.30263157894737 65.72368421052636C81.19407894736842 65.84671052631585, 79.90032894736842 65.50921052631584, 78.42763157894737 64.97368421052636C76.9549342105263 64.43815789473688, 74.11874999999998 64.00000000000001, 72.12499999999997 64.00000000000001C69.99379432624104 64.00000000000001, 67.88187820983126 64.69170771756978, 66.99999999999999 65.67857142857149C65.88506586268294 66.92623582033109, 65.74127355305947 68.01725576459941, 66.43986604542818 69.92857142857147C67.0883746822211 71.70286005787054, 69.60825154297206 73.66042008858405, 74.56853080522794 76.24330429695117C78.97717180363034 78.53894303281434, 82.86777441315567 81.43945307604088, 84.62866475979976 83.74330429695117C86.68577325619191 86.43471090837933, 87.5 88.63428307835113, 87.5 91.5C87.5 93.90621657906118, 86.61865814374875 96.89456049332146, 85.28805113750751 99.0C84.07147926313664 100.925, 81.6297516498652 103.49829200856225, 79.86198977468209 104.71842668569387C78.09422789949897 105.9385613628255, 74.6325722652868 107.23582719141346, 72.16942169865504 107.60123963811158C68.94139456946345 108.08012278365098, 65.84944296858139 107.69343687872988, 61.09548306148046 106.21630981523371L54.5 104.16699372563201 55.0,98.833496862816C55.275 95.9000735882672, 55.612500000000004 93.3875, 55.750000000000014 93.25C55.88750000000002 93.1125, 57.37787610619469 93.68893805309733, 59.06194690265484 94.53097345132741C60.74601769911499 95.37300884955748, 64.08393400996042 96.3275007368333, 66.47953870453358 96.65206653416257C69.76863187935145 97.09768560946047, 71.52874561760906 96.78833462194217, 73.66759180187876 95.38872128796334C76.1180768955852 93.78517838848224, 76.37136375131328 93.19577837156739, 75.546011196641 91.01762820512818C74.89311891816764 89.2946100633981, 72.36817083638324 87.39533521421933, 67.546011196641 85.0C63.67070503848845 83.075, 59.55500000000001 80.375, 58.400000000000006 79.0C57.15555555555558 77.51851851851853, 55.933333333333344 74.05555555555553, 55.400000000000006 70.5C54.57019479061773 64.96796527078483, 54.69109056163484 64.23342887401388, 56.95006080875644 61.082167832167855C58.297594253572484 59.20236013986017, 60.77259425357248 56.83986013986018, 62.45006080875644 55.83216783216787C64.1275273639404 54.82447552447556, 66.175 54.000000000000036, 67.0 54.00000000000003C67.825 54.00000000000002, 68.9090909090909 53.73920454545456, 69.4090909090909 53.42045454545455zM95.5,53.25C95.5 53.1125, 96.43445610453509 53.0, 97.5765691211891 53.00000000000001C98.96080866943333 53.000000000000014, 103.0840985435743 56.82928175645914, 109.9439397564384 64.48552447062553C118.95540302007753 74.54318438071678, 120.43770750128566 75.80862291033866, 121.86737063524932 74.66451875325282C122.7653167858622 73.9459271498538, 127.55 68.77744113807232, 132.5 63.1789942826273C137.45 57.58054742718229, 142.175 53.0, 143.0 52.99999999999999C144.28395061728395 52.99999999999998, 144.57201646090536 56.88888888888886, 145.0 80.00000000000003L145.5 107.00000000000009 140.0,107.00000000000006L134.5 107.00000000000003 134.0,92.75000000000001L133.5 78.5 127.06572956943972,85.3238506715701L120.63145913887945 92.1477013431402 114.06572956943972,85.3238506715701L107.5 78.5 107.5,92.75L107.5 107.00000000000001 102.0,107.00000000000001L96.5 107.00000000000001 96.0,80.25C95.725 65.5375, 95.5 53.3875, 95.5 53.25zM156.5,54.249999999999986C156.5 54.11249999999998, 158.975 53.99999999999998, 162.0 53.99999999999998L167.5 53.99999999999998 168.0,80.49999999999994L168.5 106.99999999999991 163.0,106.99999999999991L157.5 106.99999999999991 157.0,80.74999999999996C156.725 66.31249999999997, 156.5 54.387499999999996, 156.5 54.249999999999986zM179.5,54.250000000000014C179.5 54.112500000000026, 181.975 54.00000000000003, 185.0 54.00000000000002L190.5 54.000000000000014 191.0,75.25L191.5 96.5 199.220622107969,96.60311053984572L206.94124421593799 96.70622107969143 207.720622107969,101.85311053984566L208.5 106.99999999999989 194.5,106.99999999999987L180.5 106.99999999999986 180.0,80.74999999999993C179.725 66.31249999999997, 179.5 54.3875, 179.5 54.250000000000014zM216.5,54.25000000000001C216.5 54.11250000000001, 222.8 54.000000000000014, 230.5 54.00000000000001L244.5 54.0 243.66747572815527,59.25L242.83495145631053 64.5 234.66747572815527,64.91258162842065L226.5 65.32516325684131 227.0,70.29054703316172L227.5 75.25593080948211 234.16913746630715,75.37796540474105L240.8382749326143 75.5 241.66913746630715,80.75000000000003L242.5 86.00000000000006 234.5,86.00000000000003L226.5 86.0 227.34486962479332,91.25L228.1897392495866 96.5 235.84486962479332,96.5L243.5 96.5 244.0,101.75L244.5 107.0 231.0,106.99999999999999L217.5 106.99999999999997 217.0,80.74999999999999C216.725 66.3125, 216.5 54.3875, 216.5 54.25000000000001z"/><path stroke="none" opacity="0.13176470588235295 " fill-rule="evenodd" d="M69.76032806804375,53.43620899149457C71.0035085054678 53.126123936816555, 74.60350850546781 53.410744072702904, 77.76032806804375 54.06869818235312L83.5 55.26497838171713 82.52777777777777,60.382489190858564C81.99305555555556 63.19712013588635, 81.45423976608187 65.60065789473686, 81.33040935672514 65.72368421052636C81.20657894736843 65.84671052631585, 79.90032894736841 65.50921052631584, 78.42763157894731 64.97368421052634C76.95493421052623 64.43815789473685, 74.34374999999993 63.999999999999986, 72.62499999999994 63.999999999999986C70.90624999999997 63.99999999999999, 68.6 64.67500000000001, 67.5 65.50000000000003C65.86293123935012 66.72780157048747, 65.6684008033157 67.49903045410649, 66.42800390298311 69.75000000000003C67.10024850710111 71.74209578255208, 69.37373536759367 73.60240613446972, 74.67718463377126 76.5C78.70383188906403 78.7, 83.23623013272164 82.075, 84.74918073078815 84.0C86.82422579059478 86.64017988771909, 87.5 88.60548300150404, 87.5 92.0C87.5 95.44380169356442, 86.83751276821265 97.32148757167211, 84.67743105165172 100.0C83.12501813006016 101.925, 79.97501813006016 104.55679964592994, 77.67743105165172 105.8484436576221C74.13271934648387 107.84118886853558, 72.57511259998691 108.11421577319209, 67.39357482813341 107.6510613202345C64.03504098360679 107.35085702297918, 59.5350409836068 106.38478318350084, 57.39357482813342 105.50423056583821L53.5 103.90322580645159 54.5,98.7016129032258C55.05 95.8407258064516, 55.612500000000004 93.3875, 55.750000000000014 93.25C55.88750000000002 93.1125, 57.31146788990827 93.65573394495412, 58.91437308868501 94.45718654434249C60.517278287461764 95.25863914373086, 64.00477828746176 96.19629628428834, 66.66437308868501 96.54086907891465C70.60295323478552 97.0511451432149, 71.9637696319765 96.79880507112142, 74.0 95.18060282442721C76.07449627343235 93.5319904752825, 76.34535791222693 92.76946419614372, 75.59141754750016 90.70046415860546C74.95595611725777 88.9565998099947, 72.69789696785998 87.29579203037405, 68.07960866917952 85.17551117964317C64.44783413497808 83.50814407282147, 60.131696238603006 80.64904933188379, 58.48819112167936 78.82196731089277C56.27557711143748 76.36220783957887, 55.37022632089851 74.2022632089851, 55.0 70.5C54.619834710743795 66.69834710743797, 54.9669894643871 64.69088701028328, 56.448473282442805 62.12404580152666C57.52013358778634 60.26727099236633, 59.72269382875018 57.67977099236633, 61.34305159569577 56.37404580152668C62.963409362641364 55.06832061068702, 65.0115963855421 54.00000000000002, 65.89457831325296 54.00000000000003C66.77756024096384 54.00000000000003, 68.51714763061969 53.74629404617257, 69.76032806804375 53.43620899149457zM95.5,53.25C95.5 53.1125, 96.47330327235247 53.0, 97.66289616078325 53.0C99.15937639214933 53.00000000000001, 102.9736843174069 56.52826455145167, 110.04248014641792 64.45121164681115C116.35954990241893 71.5315985592584, 120.68682071050843 75.6142649263004, 121.37958398563467 75.14747139036716C121.9958127935356 74.73224784357683, 126.75459622317433 69.57920260251183, 131.95465827372072 63.69625974355601C137.15472032426712 57.81331688460021, 142.10472032426713 53.0, 142.95465827372072 52.99999999999999C144.2979449772467 52.99999999999998, 144.5653755151101 56.530277815945944, 145.0 80.00000000000003L145.5 107.00000000000009 140.0,107.00000000000006L134.5 107.00000000000003 134.0,92.75000000000001L133.5 78.5 127.0,85.32158970512461L120.5 92.14317941024922 114.0,85.32158970512461L107.5 78.5 107.5,92.75L107.5 107.00000000000001 102.0,107.00000000000001L96.5 107.00000000000001 96.0,80.25C95.725 65.5375, 95.5 53.3875, 95.5 53.25zM156.5,54.249999999999986C156.5 54.11249999999998, 158.975 53.99999999999998, 162.0 53.99999999999998L167.5 53.99999999999998 168.0,80.49999999999994L168.5 106.99999999999991 163.0,106.99999999999991L157.5 106.99999999999991 157.0,80.74999999999996C156.725 66.31249999999997, 156.5 54.387499999999996, 156.5 54.249999999999986zM179.5,54.250000000000014C179.5 54.112500000000026, 181.975 54.00000000000003, 185.0 54.00000000000002L190.5 54.000000000000014 191.0,75.25L191.5 96.5 199.16747572815518,96.5L206.83495145631036 96.5 207.66747572815518,101.74999999999994L208.5 106.99999999999989 194.5,106.99999999999987L180.5 106.99999999999986 180.0,80.74999999999993C179.725 66.31249999999997, 179.5 54.3875, 179.5 54.250000000000014zM216.5,54.25000000000001C216.5 54.11250000000001, 222.8 54.000000000000014, 230.5 54.00000000000001L244.5 54.0 243.66826923076917,59.25L242.8365384615383 64.5 235.16826923076917,64.92779461413723L227.5 65.35558922827445 228.0,70.17779461413721L228.5 74.99999999999997 235.0,74.99999999999999L241.5 75.0 242.0,80.5L242.5 85.99999999999999 235.0,85.99999999999999L227.5 85.99999999999999 228.0,91.06326399009714L228.5 96.12652798019431 236.16747572815524,96.31326399009716L243.83495145631045 96.5 244.66747572815524,101.75L245.5 107.0 231.5,107.0L217.5 107.00000000000001 217.0,80.75C216.725 66.3125, 216.5 54.3875, 216.5 54.25000000000001z"/><path stroke="none" opacity="0.06483660130718955 " fill-rule="evenodd" d="M70.0,53.160514018691586C71.375 52.97379672897196, 74.75 53.19879672897196, 77.5 53.660514018691586L82.5 54.5 83.0,59.0C83.29754385964912 61.67789473684215, 83.04206349206349 63.957936507936495, 82.36904761904759 64.63095238095238C81.5569644391125 65.44303556088747, 79.97419373550021 65.47694023214197, 76.75534052522607 64.75120409719952C74.28982543314805 64.19531873161165, 71.19875400457664 63.99705529779776, 69.88629290617848 64.31061868872422C68.57383180778031 64.62418207965067, 67.05 65.80756880733944, 66.5 66.94036697247704C65.83383830640963 68.31241559826634, 65.83350312738713 69.66700625477422, 66.49899598393574 70.99799196787146C67.0484437751004 72.09688755020078, 69.7484437751004 73.95668474168126, 72.49899598393574 75.13087461560586C75.24954819277109 76.30506448953047, 78.86812583222371 78.26561238780037, 80.54027962716381 79.48764772287234C82.21243342210391 80.70968305794429, 84.46243342210391 83.23738586646382, 85.54027962716381 85.10476507513795C86.61812583222373 86.97214428381207, 87.5 90.3, 87.5 92.5C87.5 95.33995843792817, 86.70619399979866 97.51503636681284, 84.76283600120806 100.0C83.25739580187248 101.925, 80.86920463943913 104.36588436779735, 79.45574452913395 105.4241874839941C77.9626113690136 106.54214437908534, 74.67215837037448 107.53045556774086, 71.60259610757862 107.78293701009446C68.52811764654172 108.03582282568325, 64.05776109530176 107.57549515519612, 60.90968757965271 106.68185220467176C57.93435941084372 105.83724643853083, 55.05 104.65465530563182, 54.5 104.05387190934063C53.848117844367664 103.34179922671805, 53.825017770154666 101.13712056907197, 54.43364294710328 97.72073302170122L55.36728589420655 92.47992758186399 59.23960692730707,94.34316303187751C61.36938349551236 95.36794252938496, 65.25722216383464 96.27245882346556, 67.8792484124677 96.35319924094551C71.15573632527206 96.45409258710703, 73.24908977562586 95.95807187677127, 74.5732844322639 94.76704545454544C76.08901830223085 93.4037420465883, 76.30285272666804 92.5109234521956, 75.57575757575759 90.5814393939394C74.93172898142508 88.8723881036513, 72.8094537450583 87.35971885264802, 68.57575757575759 85.59213142126085C65.23409090909092 84.19697036962093, 61.15 81.78938499649433, 59.5 80.24194170320175C57.85 78.69449840990914, 55.891816766393944 75.7082834865298, 55.14848170309766 73.60590854013651C54.01312397389453 70.3947756837288, 54.01312397389453 69.05140454207509, 55.14848170309766 65.20663990015996C55.891816766393944 62.68941709456615, 57.85 59.33851952652516, 59.5 57.76020086006888C61.65848212360934 55.69549017709626, 66.29751368307356 53.663290898924686, 70.0 53.160514018691586zM95.5,53.25C95.5 53.1125, 96.44559260832625 53.0, 97.60131690739166 53.0C98.98426936511048 53.00000000000001, 102.74477256127528 56.33317328750972, 108.60131690739166 62.75C113.49559260832625 68.1125, 118.21352760202038 73.28309705901891, 119.08561689337861 74.24021568670871C120.56693967461835 75.86596850995191, 121.34552638138331 75.22466127010087, 130.9227207325953 64.49021568670871C136.56103855280625 58.170597059018924, 141.92251095078586 53.0, 142.8371038392167 52.999999999999986C144.3351982072724 52.99999999999997, 144.54955264093277 55.72539525130282, 145.0 80.49999999999997L145.5 107.99999999999997 140.0,107.99999999999999L134.5 108.0 134.0,93.75L133.5 79.5 126.9480394574824,85.75193083732795L120.3960789149648 92.0038616746559 113.9480394574824,85.25193083732795L107.5 78.5 107.5,93.25L107.5 107.99999999999999 102.0,107.99999999999997L96.5 107.99999999999996 96.0,80.74999999999997C95.725 65.76249999999999, 95.5 53.3875, 95.5 53.25zM156.5,54.249999999999986C156.5 54.11249999999998, 158.975 53.99999999999998, 162.0 53.99999999999998L167.5 53.99999999999998 168.0,81.0L168.5 108.00000000000001 163.0,108.0L157.5 107.99999999999999 157.0,81.25C156.725 66.5375, 156.5 54.387499999999996, 156.5 54.249999999999986zM178.5,54.249999999999986C178.5 54.112499999999976, 181.2 53.99999999999997, 184.5 53.99999999999997L190.5 53.999999999999964 191.0,75.0L191.5 96.00000000000004 200.0,96.00000000000003L208.5 96.0 207.66515151515142,101.75L206.83030303030282 107.5 193.43310023310028,107.5L180.03589743589777 107.5 179.26794871794888,81.0C178.845576923077 66.425, 178.5 54.387499999999996, 178.5 54.249999999999986zM215.5,54.24999999999999C215.5 54.11249999999999, 221.8 53.999999999999986, 229.5 53.999999999999986L243.5 53.999999999999986 244.0,59.499999999999986L244.5 64.99999999999999 236.0,64.99999999999997L227.5 64.99999999999997 228.0,69.99999999999997L228.5 74.99999999999997 235.0,74.99999999999999L241.5 75.0 242.0,80.5L242.5 85.99999999999999 235.0,85.99999999999999L227.5 85.99999999999999 228.0,90.99999999999997L228.5 95.99999999999996 237.0,95.99999999999997L245.5 96.0 244.66515151515148,101.75L243.83030303030299 107.5 230.43310023309994,107.5L217.03589743589689 107.5 216.26794871794846,81.0C215.8455769230768 66.425, 215.5 54.387499999999996, 215.5 54.24999999999999z"/></svg>