<svg version="1.1" xmlns="http://www.w3.org/2000/svg" xmlns:xlink="http://www.w3.org/1999/xlink"
                  width="311" height="162" viewBox="0 0 311 162"><path stroke="none" opacity="0.4664052287581699 " fill-rule="evenodd" d="M74.77699423075583,43.19997973707521C74.62464740384013 43.01774933444578, 77.11360764726128 43.010705092528184, 80.30801699391394 43.18432586614722L86.11603398782788 43.5 102.49132756442967,83.0L118.86662114103144 122.5 113.1471490929523,122.79188348648871L107.42767704487315 123.08376697297743 102.73190771502522,111.29188348648871L98.0361383851773 99.5 81.03713155103645,99.5L64.03812471689562 99.5 59.5358005977607,111.0L55.03347647862577 122.5 50.21778515191306,122.79479148577244C47.569154922221074 122.95692680294727, 45.277469899955314 122.73192680294727, 45.12515176910027 122.29479148577244C44.97283363824522 121.85765616859759, 51.64450993141527 103.9570442419176, 59.951099087255926 82.51565387092799C68.2576882430966 61.0742634999384, 74.92934105767155 43.38221013970465, 74.77699423075583 43.19997973707521zM164.5,43.250000000000014C164.5 43.112500000000026, 166.525 43.00000000000003, 169.0 43.00000000000003L173.5 43.000000000000036 174.0,48.500000000000014L174.5 54.0 170.0,54.0L165.5 54.0 165.0,48.75C164.725 45.8625, 164.5 43.3875, 164.5 43.250000000000014zM251.5,43.24999999999999C251.5 43.11249999999999, 253.525 42.999999999999986, 256.0 42.99999999999998L260.5 42.99999999999997 261.0,82.99999999999966L261.5 122.99999999999936 257.0,122.9999999999994L252.5 122.99999999999943 252.0,83.24999999999972C251.725 61.38749999999987, 251.5 43.387499999999996, 251.5 43.24999999999999zM80.44127227876689,52.32858665854404C80.57568187664826 52.234309320743264, 82.44388135851355 57.18430932074326, 84.59282668291198 63.32858665854404C86.74177200731039 69.47286399634481, 89.9784090909091 78.2125, 91.78535353535355 82.75L95.07070707070709 91.00000000000001 81.22047763859425,91.00000000000001C73.60285145093218 91.00000000000001, 67.25918953577799 90.85002132520931, 67.1234511604738 90.66671405602068C66.98771278516962 90.48340678683203, 69.0419069387113 84.52090678683203, 71.6883270572331 77.41671405602067C74.3347471757549 70.3125213252093, 77.33180051813471 61.8, 78.34844559585491 58.5C79.36509067357511 55.2, 80.3068626808855 52.422863996344816, 80.44127227876689 52.32858665854404zM146.8871428571428,64.66714285714285C147.6652130167423 64.19998023814539, 150.11154002026333 64.34111448834852, 152.45857142857136 64.98857142857143C154.75992857142853 65.62342857142858, 156.99028745644597 66.490287456446, 157.41492450638793 66.91492450638793C157.83956155632987 67.33956155632985, 157.37532348299567 69.50256589329922, 156.38328434342304 71.7216008107643C154.7612988933932 75.34972615951527, 154.33628883516448 75.66774139460522, 152.16478840846378 74.87810487580496C150.8366547838088 74.39514719411225, 148.55267857142871 74.00000000000003, 147.08928571428584 74.00000000000003C145.625892857143 74.00000000000001, 143.29200319642345 74.84381580871599, 141.90286424602027 75.87514624159107C140.51372529561706 76.90647667446616, 138.50479672418845 80.16897667446615, 137.4385785317345 83.12514624159107C135.71461638806656 87.90496003585491, 135.55535406086298 90.40971509977254, 136.0 105.75000000000003L136.5 123.00000000000007 132.0,123.00000000000009L127.5 123.00000000000009 127.0,94.49999999999997L126.5 65.99999999999984 130.5,65.99999999999989C134.3387546468402 65.99999999999994, 134.52802388714218 66.15240688685867, 135.19518622628246 69.78074490513008L135.89037245256492 73.56148981026021 138.54270175423275,69.76521695481959C140.00971060847746 67.6654905413014, 142.1569718887666 65.86415902813182, 143.3475155279503 65.73447204968949C144.53138198757762 65.60551242236026, 146.12421428571426 65.12521428571428, 146.8871428571428 64.66714285714285zM217.13129349160863,64.94064674580432C221.84935420298564 64.89841784173495, 224.91306064860473 65.45653032430239, 227.75014595062498 66.87507297531253C229.94330338269924 67.97165169134966, 232.80922131147537 70.36086065573772, 234.11885245901635 72.1844262295082C236.44179979442868 75.41896047107194, 236.48777895855474 75.87885228480334, 236.0 91.0C235.71774407772924 99.7499335903937, 237.51804726704373 118.59566059343076, 238.93749999999994 121.75C239.34654255319148 122.65898345153664, 238.1261904761905 123.0, 234.4642857142857 123.0C229.63290484861577 123.0, 229.39062826850056 122.86719893975213, 228.49347763347757 119.72717171717174L227.55838383838375 116.45434343434349 222.03865753328014,119.73200699878709C219.00280806547318 121.53472195923108, 215.03985627542957 123.28213173873671, 213.23209799984997 123.61513984213293C211.42433972427037 123.94814794552916, 206.86615245576135 124.04746851090066, 203.10279295871885 123.83585220962514C198.20598089524094 123.56050108844502, 195.56402735504136 122.88934748998119, 193.81160387192637 121.47554764910757C192.464809371233 120.3889964420984, 190.26873711340227 118.15, 188.9314432989692 116.5C187.08037800687282 114.21609073563698, 186.5 112.30651544060504, 186.5 108.5C186.5 105.00469210820876, 187.18084924172823 102.44671552425388, 188.76242045802556 100.0C190.0067517099396 98.075, 192.85607450284422 95.44596000021107, 195.09424888670247 94.15768888935796C197.80083334139937 92.59980555943639, 203.2387140851286 91.15675609383331, 211.33182842867689 89.84872523513394C218.0243227929046 88.76706633616388, 224.4 87.57110633595279, 225.5 87.191036345776C226.9019919231609 86.70662265808171, 227.5 85.60298788474134, 227.5 83.5C227.5 81.85, 226.6347455557726 79.375, 225.57721234616133 78.0C224.51967913655008 76.625, 222.26967913655008 74.7125, 220.57721234616133 73.75C218.77829448727627 72.72696164615486, 215.42296672527186 72.00000000000001, 212.5 72.00000000000001C209.67457559633692 72.00000000000001, 206.05031442056338 72.76110145871793, 204.16673905961557 73.75C202.33344554240415 74.7125, 199.87824639429476 77.1762124495591, 198.7107409527058 79.2249165545758C196.67488583646067 82.79737505052435, 196.4224858024425 82.9230337517433, 192.54400189309024 82.29506043946787C190.3198008518906 81.93493547114184, 188.29794407894735 81.56394506105642, 188.05098684210526 81.4706373059447C187.59765882151382 81.29935655923931, 191.94783583128373 72.94020521089534, 193.5 71.0C194.6 69.625, 197.3 67.7125, 199.5 66.75C201.7 65.7875, 205.075 65.0, 207.0 64.99999999999999C208.925 64.99999999999997, 213.4840820712239 64.97329103561192, 217.13129349160863 64.94064674580432zM164.5,66.25C164.5 66.11250000000001, 166.525 66.00000000000001, 169.0 66.00000000000001L173.5 66.00000000000001 174.0,94.5L174.5 122.99999999999999 170.0,123.0L165.5 123.0 165.0,94.75C164.725 79.2125, 164.5 66.3875, 164.5 66.25zM225.5,95.0C226.06140350877192 94.71929824561404, 226.71929824561403 96.47368421052632, 227.0 99.0C227.40083308268046 102.60749774412412, 226.986257751451 104.39250225587588, 224.9097094956901 108.0C223.40072754440314 110.6214892767791, 220.6873231664174 113.43925536161045, 218.4097094956901 114.75C215.7143592437077 116.30114800054727, 212.86934533461033 117.0, 209.25000000000003 117.00000000000001C206.36250000000004 117.00000000000003, 202.76250000000005 116.40000000000003, 201.25000000000003 115.6666666666667C199.7375 114.93333333333337, 197.825 112.90833333333336, 197.0 111.16666666666669C195.66666666666666 108.35185185185185, 195.66666666666666 107.63888888888889, 197.0 104.75C197.825 102.9625, 199.40000000000012 100.97574999999996, 200.50000000000026 100.33499999999991C202.0412823383981 99.43720303788321, 215.00741806718466 96.55473132586837, 220.0 96.0C222.475 95.725, 224.95 95.275, 225.5 95.0z"/><path stroke="none" opacity="0.3994771241830065 " fill-rule="evenodd" d="M74.7490052522273,43.18432586614722C74.61205236350229 43.010705092528184, 77.12561850434551 43.010705092528184, 80.33470778743445 43.18432586614722L86.1694155748689 43.5 102.56679045724806,83.0L118.96416533962721 122.5 113.1880135790546,122.79208799372657L107.411861818482 123.08417598745314 102.64651720291073,111.29208799372657L97.88117258733948 99.5 80.95075170420415,99.5L64.02033082106882 99.5 59.57624392676968,111.0L55.13215703247054 122.5 49.6647592627193,122.79657383921335L44.19736149296807 123.09314767842669 59.59768599871134,83.29657383921335C68.06786447687014 61.408458227646, 74.88595814095233 43.35794663976625, 74.7490052522273 43.18432586614722zM165.0,43.37521152068108C164.725 43.1688451843065, 166.525 43.00000000000003, 169.0 43.00000000000003L173.5 43.000000000000036 174.0,48.50000000000003L174.5 54.000000000000014 169.20000000000002,54.00000000000001L163.90000000000003 54.0 164.70000000000002,48.87521152068106C165.14000000000001 46.05657785705565, 165.275 43.581577857055656, 165.0 43.37521152068108zM251.5,43.24999999999999C251.5 43.11249999999999, 253.525 42.999999999999986, 256.0 42.99999999999998L260.5 42.99999999999997 261.0,82.99999999999966L261.5 122.99999999999936 257.0,122.9999999999994L252.5 122.99999999999943 252.0,83.24999999999972C251.725 61.38749999999987, 251.5 43.387499999999996, 251.5 43.24999999999999zM80.45513395718498,52.63459812844506C80.47981028073325 52.56056915780028, 83.73240150089956 61.05, 87.68311444644345 71.5L94.8662288928869 90.5 81.13763359943512,90.7761919563842C73.58690618803664 90.9280975323955, 67.29436717568888 90.89752680841637, 67.15421357199563 90.70825701420834C67.01405996830238 90.51898722000031, 69.28452634945613 83.86970083962743, 72.19969441900395 75.93206505782415C74.74797548392998 68.99341641716926, 79.03436457091487 56.896906287257416, 80.45513395718498 52.63459812844506zM146.37499999999994,64.48437500000007C146.85624999999993 64.14921875000003, 148.88124999999994 64.14649234693879, 150.87499999999994 64.47831632653063C152.86874999999998 64.81014030612248, 155.34619565217392 65.6306566104703, 156.38043478260872 66.30168589174801C158.21278027985534 67.49053810772726, 158.21379780843247 67.62703121798008, 156.4202231910724 71.63897444102233C154.76167944027836 75.34887493621952, 154.34067198969075 75.66933526897841, 152.16478840846378 74.87810487580496C150.8366547838088 74.39514719411225, 148.4641034031415 74.00000000000003, 146.89245200698088 74.00000000000001C145.11269104659155 74.0, 142.99109866271777 75.03722294322716, 141.26745200698082 76.75C139.65883606898163 78.34847174163784, 137.871893677257 81.80305651672434, 137.0 85.0C135.83870967741936 89.25806451612904, 135.61290322580646 94.16935483870968, 136.0 106.75000000000003L136.5 123.00000000000007 132.0,123.00000000000009L127.5 123.00000000000009 127.0,94.49999999999997L126.5 65.99999999999984 130.5,65.99999999999989C134.3387546468402 65.99999999999994, 134.52802388714218 66.15240688685867, 135.19518622628246 69.78074490513008L135.89037245256492 73.56148981026021 138.54270175423275,69.76521695481959C140.00148287015006 67.67726688432725, 142.16364906832297 65.77202542701873, 143.3475155279503 65.53134704968954C144.53138198757762 65.29066867236037, 145.89374999999998 64.8195312500001, 146.37499999999994 64.48437500000007zM216.70877897394547,64.92892835852304C221.84941664406395 64.87824660523658, 224.91733160868387 65.38030767477112, 227.4024007539856 66.678928358523C229.31906429733772 67.68051776133535, 232.15011375906224 70.075, 233.69362178004016 72.0C236.4950828051579 75.49386747594285, 236.49912392513468 75.52102579676739, 236.0 87.5C235.69820164658796 94.74316048188903, 236.03092159283614 103.6622345783471, 236.83934707903785 110.0C237.57598797250864 115.775, 238.47598797250865 121.0625, 238.83934707903785 121.75C239.32663288308567 122.67197769166403, 238.17853870070363 123.0, 234.4642857142857 123.0C229.6080673956706 123.0, 229.39441330105743 122.8804465537011, 228.47027373823778 119.64595808383237L227.51197604790414 116.29191616766474 223.49225804683545,119.00522581838611C221.28141314624764 120.49754612628286, 217.7327750457137 122.2797499852536, 215.6063956012045 122.96567883832108C213.48001615669526 123.65160769138858, 209.21119464639773 124.23610479039982, 206.1201255783211 124.2645612805683C203.02905651024452 124.2930177707368, 198.8847627737226 123.78941108814556, 196.9105839416058 123.14543531925443C194.936405109489 122.50145955036332, 192.01140510948898 120.51779197080289, 190.4105839416058 118.73728514245349C188.78277057437526 116.92675635024305, 187.066556597801 113.49441391622072, 186.5165245202558 110.94936034115142C185.66798479662143 107.02308195596623, 185.84334688683214 105.75492515068464, 187.79464620401956 101.70643497857625C189.0385246439489 99.12567784152664, 191.28108860983377 96.17645864575493, 192.77812168376374 95.15261454352805C194.27515475769368 94.12877044130116, 197.075 92.8567724214703, 199.0 92.32595227723726C200.925 91.79513213300422, 206.1 90.7493692813842, 210.5 90.00203482919278C214.9 89.25470037700136, 220.525 88.16101480999103, 223.0 87.57162245805873C227.0951950093203 86.59639958203259, 227.5 86.23013000621353, 227.5 83.5C227.5 81.85, 226.6347455557726 79.375, 225.57721234616133 78.0C224.51967913655008 76.625, 222.26967913655008 74.7125, 220.57721234616133 73.75C218.77829448727627 72.72696164615486, 215.42296672527186 72.00000000000001, 212.5 72.00000000000001C209.60411067779373 72.00000000000001, 206.1751296561391 72.73643873722781, 204.3517094707915 73.75C202.62014967972678 74.7125, 200.16521707173715 77.17625446573562, 198.89630367525893 79.22500992385694C196.69434496285814 82.7802367369001, 196.4048388903965 82.9201715532034, 192.54459420446747 82.29515380874903C190.32006739201037 81.93497748731835, 188.29794407894735 81.56394506105642, 188.05098684210526 81.4706373059447C187.5976588215138 81.29935655923931, 191.9478358312837 72.94020521089539, 193.5 71.0C194.6 69.625, 197.3 67.7125, 199.5 66.75C201.7 65.78750000000001, 204.85 65.00000000000003, 206.5 65.00000000000006C208.15 65.00000000000007, 212.74395053827544 64.96801776133542, 216.70877897394547 64.92892835852304zM169.0,66.5L173.5 66.5 174.0,94.75000000000006L174.5 123.00000000000011 169.0,122.99999999999994L163.5 122.99999999999977 164.0,94.74999999999989L164.5 66.5 169.0,66.5zM226.0,94.71808510638297C226.275 94.59813829787234, 226.725 96.525, 227.0 99.0C227.39871453595023 102.58843082355207, 226.98320457453812 104.40683549440055, 224.94881740775793 107.97663197729416C223.21671779352417 111.01599597441327, 220.97933011286457 113.18315175478313, 217.98006740775793 114.72663197729415C215.19830584702274 116.15818178632748, 211.792024083245 116.99999999999999, 208.78125 116.99999999999997C206.15156249999995 116.99999999999997, 202.76249999999996 116.38124999999997, 201.24999999999997 115.62499999999996C199.71865671641794 114.85932835820893, 197.87095531587056 112.67738828967633, 197.08050847457628 110.70127118644066C195.81151444336732 107.52878610841829, 195.84482770802546 106.83743821481355, 197.39471900089205 104.18048171275652C198.34825512934876 102.54584834968783, 200.33702631578944 100.65947713546163, 201.81421052631578 99.98854568114274C203.29139473684208 99.31761422682384, 207.875 98.25821948998171, 212.0 97.63433515482691C216.38664994191913 96.9708776560218, 224.90156203552007 95.1971910270604, 226.0 94.71808510638297z"/><path stroke="none" opacity="0.3325490196078431 " fill-rule="evenodd" d="M80.6334285810504,43.5L86.2439480973937 43.5 102.64863838057335,83.0L119.05332866375299 122.5 113.2020850771249,122.79287704969185L107.35084149049682 123.0857540993837 102.54900215470967,111.01981446853536L97.74716281892252 98.95387483768701 80.88615853712491,99.2269374188435L64.02515425532731 99.5 59.63655855530815,111.0L55.24796285528899 122.5 49.72597739674039,122.5L44.2039919381918 122.5 59.61345050144945,83.0L75.02290906470711 43.5 80.6334285810504,43.5zM163.5,43.25C163.5 43.1125, 165.75 42.99999999999999, 168.5 42.999999999999986L173.5 42.999999999999986 174.0,48.5L174.5 54.000000000000014 169.5,54.00000000000001L164.5 54.0 164.0,48.75C163.725 45.8625, 163.5 43.387499999999996, 163.5 43.25zM251.5,43.24999999999999C251.5 43.11249999999999, 253.525 42.999999999999986, 256.0 42.99999999999998L260.5 42.99999999999997 261.0,82.99999999999966L261.5 122.99999999999936 257.0,122.9999999999994L252.5 122.99999999999943 252.0,83.24999999999972C251.725 61.38749999999987, 251.5 43.387499999999996, 251.5 43.24999999999999zM80.5,52.466596250330085C80.5 52.448224188011636, 80.5 52.67322418801164, 80.5 52.966596250330085C80.5 53.25996831264854, 83.65 61.599999999999994, 87.5 71.5C91.35 81.4, 94.5 89.8375, 94.5 90.25C94.5 90.66250000000001, 88.2 91.00000000000001, 80.5 91.00000000000003C69.69999999999992 91.00000000000003, 66.61428571428571 90.71428571428575, 67.0 89.75000000000001C69.66944497131492 83.07638757171266, 80.5 53.16527972226933, 80.5 52.466596250330085zM145.41949152542367,64.66525423728814C145.9252118644067 64.20614406779661, 148.1752118644067 64.0997685007195, 150.41949152542367 64.42886408822788C152.66377118644067 64.75795967573626, 155.37088972929936 65.60446509379737, 156.43531050955414 66.30998723947478C158.32386907311286 67.561766530819, 158.32673661766663 67.6898667105829, 156.55401335696226 71.61273173265769C154.74220595792153 75.62208617053486, 154.7273023823572 75.63006835592269, 150.9139163519506 74.63350347330979C147.91484970202882 73.84974738879689, 146.34749169621466 73.97904162297954, 143.64485803638345 75.23314141477172C141.5561348263256 76.20236909138129, 139.60354686870394 78.14489813516006, 138.68646359798885 80.1659922855846C137.6163060616301 82.52443584881827, 136.92877646673048 89.27904841147542, 136.33681906614788 103.25000000000001L135.5 123.00000000000003 131.5,123.00000000000006L127.5 123.0000000000001 127.0,94.00000000000009L126.5 65.00000000000006 130.5,65.00000000000003C134.41666666666669 65.0, 134.51041666666666 65.08333333333333, 135.0 69.00000000000001C135.275 71.20000000000002, 135.725 73.00000000000003, 136.0 73.00000000000001C136.275 73.0, 137.351522815325 71.60099009900989, 138.39227292294447 69.89108910891086C139.43302303056393 68.18118811881183, 141.23302303056394 66.49368811881183, 142.39227292294447 66.14108910891086C143.551522815325 65.78849009900989, 144.91377118644067 65.12436440677966, 145.41949152542367 64.66525423728814zM212.29815664138306,64.4439936496737C214.93714279414374 64.13819015699421, 219.51170382114543 64.38504515933539, 222.46384781249793 64.99256032154298C225.41599180385043 65.60007548375057, 229.1379188762037 67.14997346334869, 230.7347968621719 68.43677805398325C232.33167484814007 69.7235826446178, 234.1206384605614 71.83922764227663, 234.7102715564415 73.13821138211395C235.29990465232163 74.43719512195128, 236.28559807063692 85.625, 236.90070137491995 98.0C237.515804679203 110.375, 238.35228003977997 121.0625, 238.75953550953545 121.75C239.31232226765746 122.68317567088059, 238.2115810615811 123.00000000000001, 234.41666666666669 123.00000000000006C229.63888888888886 123.00000000000011, 229.278233151184 122.81967213114768, 228.41666666666669 120.00000000000006C227.9125 118.35000000000001, 227.4362801111797 116.99999999999999, 227.35840024706607 117.0C227.2805203829524 117.0, 225.01573753217284 118.34574053452117, 222.32554946755596 119.99053452115817C219.63536140293905 121.63532850779517, 214.99797905416187 123.4378789273447, 212.0202553591622 123.99620212015714C209.0425316641625 124.55452531296959, 204.4617359586788 124.72937925827856, 201.84070934697615 124.38476644306596C199.2196827352735 124.04015362785336, 195.81571160136062 122.80010320830382, 194.27632904939202 121.62909884406699C192.73694649742342 120.45809447983014, 190.58252505368668 118.375, 189.48872584108818 117.0C188.39492662848969 115.625, 187.05 112.7, 186.5 110.5C185.6469958425467 107.08798337018676, 185.8391992919668 105.79383658372818, 187.80754343857754 101.69603137042795C189.2855838233812 98.61896702436545, 191.53749949405596 95.97319154130751, 194.07200889949917 94.33591156363102C196.81702520090536 92.56264521905337, 201.0106803568014 91.29273888134949, 207.76446546092166 90.18961514208601C213.11900945741473 89.31503525770997, 219.75 88.12708917076858, 222.5 87.54973494888296C227.1556144558038 86.57230270832657, 227.5 86.29336867348228, 227.5 83.5C227.5 81.85, 226.6347455557726 79.375, 225.57721234616133 78.0C224.51967913655008 76.625, 222.26967913655008 74.71249999999999, 220.57721234616133 73.74999999999999C218.8414545791965 72.76288057160639, 215.43555175928552 71.99999999999997, 212.7642857142857 71.99999999999999C210.15964285714284 72.0, 206.4878085321149 72.62705466716254, 204.6046538808903 73.39345481591675C202.1569963718317 74.38959449983598, 200.65599300268542 75.97084403724327, 199.3403681666046 78.93917811114733C197.50233677465903 83.08617432160976, 197.4943953228596 83.09064951032252, 193.0859375 82.46369204523059C190.65820312499997 82.11842704535377, 188.40820312499997 81.70277282234254, 188.0859375 81.54001599409452C187.763671875 81.37725916584651, 188.175 79.5016732283465, 189.0 77.37204724409452C189.825 75.24242125984253, 191.625 72.38287481686473, 193.0 71.01749959303274C194.375 69.65212436920075, 197.3 67.73962436920074, 199.5 66.76749959303274C201.7 65.79537481686474, 204.4 65.0, 205.5 65.0C206.6 65.00000000000001, 209.65917048862238 64.74979714235317, 212.29815664138306 64.4439936496737zM169.2630579297246,65.5L173.5 65.5 174.0,94.25000000000006L174.5 123.00000000000011 169.0,123.00000000000051L163.5 123.00000000000091 164.2630579297246,94.25000000000045L165.0261158594492 65.5 169.2630579297246,65.5zM226.5,94.34599802371542C227.1658738260637 93.84320406700927, 227.17515510867304 95.74754166813426, 226.5277777777778 100.0454545454545C225.9930555555556 103.59545454545453, 224.67455555555554 107.97150000000006, 223.59777777777765 109.77000000000015C222.50442633042937 111.59618235502053, 219.7933948075534 113.91423820705218, 217.45775510204072 115.0200000000002C215.05205773501118 116.15892918825573, 211.18410293410298 117.0000000000001, 208.3520408163266 117.00000000000009C205.10120276039788 117.00000000000009, 202.56990041162857 116.36250182075462, 200.9010327022375 115.12349397590366C199.51088640275384 114.09141566265062, 197.79397910792102 112.08795821584212, 197.08568315816456 110.6713663163292C196.02812615769054 108.55625231538124, 196.03943546436585 107.52329421300338, 197.14893617021275 104.89402618657937C197.89202127659573 103.13308101472988, 199.68124999999995 101.11466346153838, 201.1249999999999 100.40865384615381C202.82413780978956 99.5777567853226, 212.99487669595183 97.25908031607761, 221.0 95.87764628199903C223.475 95.45053865298657, 225.95 94.76129693675894, 226.5 94.34599802371542z"/><path stroke="none" opacity="0.26562091503267976 " fill-rule="evenodd" d="M80.70573206704259,43.21149744861263L86.5 42.922994897225266 102.5,82.21149744861263C111.3 103.8201738518757, 118.725 121.83749999999998, 119.0 122.24999999999997C119.275 122.66249999999995, 116.74375 122.99999999999993, 113.375 122.99999999999994C107.9490740740741 122.99999999999996, 107.1501322751323 122.74319727891152, 106.375 120.74999999999997C105.89375 119.51249999999999, 103.74283961412614 114.11250000000001, 101.59519914250254 108.75L97.69039828500509 99.00000000000001 80.98047923785414,99.00000000000003L64.2705601907032 99.00000000000003 59.8852800953516,111.03816583468213L55.5 123.07633166936425 49.81835528141976,122.78816583468213L44.136710562839525 122.5 59.52408734846236,83.0L74.9114641340852 43.5 80.70573206704259,43.21149744861263zM163.5,43.25C163.5 43.1125, 165.75 42.99999999999999, 168.5 42.99999999999999L173.5 42.99999999999999 174.0,49.25L174.5 55.5 169.5,55.0L164.5 54.5 164.0,49.0C163.725 45.975, 163.5 43.387499999999996, 163.5 43.25zM251.5,43.24999999999999C251.5 43.11249999999999, 253.525 42.999999999999986, 256.0 42.99999999999998L260.5 42.99999999999997 261.0,82.99999999999966L261.5 122.99999999999936 257.0,122.9999999999994L252.5 122.99999999999943 252.0,83.24999999999972C251.725 61.38749999999987, 251.5 43.387499999999996, 251.5 43.24999999999999zM80.58333333333334,53.33333333333333C80.62916666666668 53.24166666666666, 81.07916666666667 54.59166666666666, 81.58333333333334 56.33333333333333C82.0875 58.074999999999996, 85.2 66.25, 88.5 74.5C91.8 82.75, 94.5 89.83750000000002, 94.5 90.25000000000006C94.5 90.66250000000008, 88.65 91.00000000000009, 81.5 91.00000000000007C72.0012376897356 91.00000000000006, 68.38154486919868 90.66334252983316, 68.06017933174556 89.75000000000003C67.81827796420562 89.06250000000001, 69.84327796420563 82.65, 72.56017933174556 75.5C75.2770806992855 68.35, 78.175 60.475, 79.0 58.0C79.825 55.525, 80.5375 53.425, 80.58333333333334 53.33333333333333zM147.6108978145304,64.44920259893678C149.39871690892858 64.13266178998889, 152.37019796015227 64.56926661168986, 154.59761279037582 65.47577264724595C158.06634688824784 66.88746675684501, 158.36979375359527 67.28667037898546, 157.48671497584542 69.27657004830917C156.94402173913045 70.49945652173912, 156.09979508196722 72.52540983606558, 155.61065573770492 73.77868852459017C155.00476985467708 75.33109659354633, 154.20795136917934 75.85472016973058, 153.11065573770492 75.42154566744736C150.5548258794117 74.41259211379187, 146.10124073846623 74.15950370461354, 144.21057120464712 74.9157715181412C142.68191300539397 75.52723479784247, 140.7716743119266 77.0338302752294, 139.96559633027522 78.26376146788994C139.15951834862386 79.49369266055047, 137.825 83.2, 137.0 86.5C135.8599033816425 91.06038647342996, 135.61996779388085 96.15901771336554, 136.0 107.75000000000003L136.5 123.00000000000006 132.0,123.00000000000009L127.5 123.0000000000001 127.0,94.00000000000009L126.5 65.00000000000006 130.5,65.00000000000003C134.36666666666667 65.0, 134.51666666666668 65.125, 135.0 68.75L135.5 72.5 139.17,68.75C141.18849999999998 66.68750000000001, 143.21349999999998 65.00000000000001, 143.67 65.0C144.1265 65.0, 145.89990401653867 64.75214116952155, 147.6108978145304 64.44920259893678zM215.5,64.76169376517039C221.88583679761447 64.57147067473606, 224.40796680134187 64.94771312705683, 228.0 66.62639964752344C230.475 67.7830563119738, 233.24835663950674 70.02779411764708, 234.16301475445943 71.61470588235295C235.47198979200027 73.88574885766988, 236.06592373627964 79.39647699594454, 236.95287381634006 97.5C237.57263818542174 110.15, 238.39928154591502 121.0625, 238.78985906188063 121.75C239.3177487544712 122.67919881155663, 238.1954085003303 123.00000000000001, 234.41666666666669 123.00000000000006C229.63888888888886 123.00000000000011, 229.278233151184 122.81967213114768, 228.41666666666669 120.00000000000006C227.9125 118.35000000000001, 227.4237333071485 116.99999999999999, 227.33051846033 117.0C227.23730361351153 117.0, 225.0073106445994 118.33937154344171, 222.37497852941414 119.97638120764825C219.74264641422891 121.61339087185478, 215.15053632982927 123.45455200929553, 212.17028945297045 124.06785040196101C209.19004257611164 124.68114879462648, 204.70870742002379 124.87986318868475, 202.2117668838863 124.50943794431271C199.71482634774884 124.13901269994068, 196.508203125 123.26696920955872, 195.0859375 122.5715635212417C193.663671875 121.87615783292468, 191.375 120.0005718954247, 190.0 118.40359477124174C188.625 116.80661764705879, 187.05 113.8125, 186.5 111.75C185.83333333333334 109.25, 185.83333333333334 106.75, 186.5 104.25C187.05 102.1875, 188.8125122304744 99.04022157740667, 190.41669384549863 97.25604794979259C192.02087546052286 95.47187432217851, 195.17087546052286 93.38187934272676, 197.41669384549863 92.61161466212204C199.6625122304744 91.84134998151731, 206.38733831851246 90.4637092448544, 212.3607518189166 89.55019080287111C218.33416531932076 88.63667236088783, 224.18416531932075 87.39385484033956, 225.3607518189166 86.78837409054161C227.26641541081557 85.80770448326501, 227.39080996246722 85.29509830261644, 226.5 82.09374999999994C225.95 80.11718749999997, 224.87746458087366 77.48484356552537, 224.11658795749702 76.2440968122786C223.32317227394367 74.95028924466648, 220.97753708028725 73.52008201042192, 218.61658795749702 72.89057457249535C216.35246458087366 72.28688409386133, 212.4250306265313 72.03477153988653, 209.88895694784736 72.33032445255137C207.35288326916339 72.62587736521618, 204.1963848589885 73.53824138742708, 202.8745160363476 74.35780005746446C201.55264721370665 75.17735872750184, 199.80261658717535 77.45712771595126, 198.98555908850022 79.42395336512985C198.16710268410165 81.39414646844982, 196.7889909767503 83.00000000000001, 195.91666666666674 83.00000000000003C195.04583333333343 83.00000000000003, 192.80261044176717 82.70180722891568, 190.93172690763058 82.33734939759036C187.75554554667266 81.7186127688323, 187.59539261549168 81.50323468896825, 188.51506024096386 79.08734939759034C189.05677710843372 77.66430722891566, 190.4 74.94744912379876, 191.5 73.04988694177504C192.82287721885228 70.76784895817977, 195.19280695286932 68.82112096238005, 198.5 67.29988694177504C201.25 66.03494912379878, 204.4 64.99999999999997, 205.5 64.99999999999991C206.6 64.99999999999984, 211.1 64.89276219432656, 215.5 64.76169376517039zM163.5,65.24999999999997C163.5 65.11249999999997, 165.75 64.99999999999994, 168.5 64.99999999999993L173.5 64.9999999999999 174.0,94.0L174.5 123.00000000000011 169.5,123.0000000000001L164.5 123.00000000000009 164.0,94.25000000000004C163.725 78.43750000000003, 163.5 65.38749999999999, 163.5 65.24999999999997zM225.0,95.5C225.825 95.5, 226.725 96.625, 227.0 98.0C227.275 99.375, 226.825 102.3, 226.0 104.5C225.175 106.7, 223.15 109.97321428571426, 221.5 111.77380952380948C219.85 113.57440476190469, 216.97262653061222 115.53686394557815, 215.1058367346938 116.13482993197273C213.23904693877543 116.73279591836732, 209.54805478133244 117.0161997149259, 206.90363194037607 116.7646161465474C203.75754783678886 116.46530581956765, 201.12849882348127 115.47635967945078, 199.29779520568223 113.90359573838414C197.2248093969757 112.12268631176912, 196.5 110.59327427387726, 196.5 108.0C196.5 105.57568978374347, 197.25047435426612 103.80191762427555, 198.9418380462725 102.22863110539845C200.2848489717224 100.97937821336761, 202.98484897172239 99.6293782133676, 204.9418380462725 99.22863110539845C213.60691584916336 97.45421911966244, 224.1196328456256 95.5, 225.0 95.5z"/><path stroke="none" opacity="0.19869281045751636 " fill-rule="evenodd" d="M80.63278621955925,43.210456756262474L86.5 42.92091351252495 102.5,81.71045675626247C111.3 103.04470554031812, 118.725 121.2875, 119.0 122.25C119.43703987263372 123.77963955421802, 118.73421326089905 124.0, 113.41847847888002 124.0L107.33695695776004 124.0 102.48016366480806,111.5L97.62337037185607 99.00000000000001 80.99422523380134,99.00000000000003L64.36508009574662 99.00000000000003 59.76076809874955,111.25000000000001L55.15645610175248 123.5 49.772831642689056,123.79372464578775C46.81183819020416 123.955273200971, 44.293183777702865 123.73027320097101, 44.17582183713061 123.29372464578775C44.05845989655836 122.85717609060448, 50.89314207904425 104.725, 59.364004464877056 83.0L74.76557243911851 43.5 80.63278621955925,43.210456756262474zM163.5,43.25C163.5 43.1125, 165.75 42.99999999999999, 168.5 42.99999999999999L173.5 42.99999999999999 174.0,49.000000000000014L174.5 55.00000000000003 169.5,55.00000000000003L164.5 55.00000000000002 164.0,49.250000000000014C163.725 46.087500000000006, 163.5 43.387499999999996, 163.5 43.25zM257.0,43.68097497842973L262.5 42.86194995685946 261.7395833333326,83.18097497842973L260.97916666666515 123.5 256.7395833333326,123.5L252.5 123.5 252.0,84.0L251.5 44.5 257.0,43.68097497842973zM80.45526188415997,53.63724744011944C80.47986784787199 53.56176134805375, 83.56395031037101 61.599999999999994, 87.30877846749114 71.5C91.05360662461126 81.4, 94.20360662461127 89.61250000000001, 94.30877846749114 89.75000000000003C94.413950310371 89.88750000000006, 88.65 90.00000000000006, 81.5 90.00000000000004C74.35 90.00000000000003, 68.34654618508718 89.66250000000001, 68.15899152241595 89.25C67.97143685974471 88.8375, 69.77143685974471 83.325, 72.15899152241595 77.0C74.20580485876361 71.57767624975978, 79.09825642560946 57.80026418584148, 80.45526188415997 53.63724744011944zM147.68206672483944,64.1985294117647C150.01168151771083 64.02773621020835, 158.50147216385955 67.01150257716114, 158.49849317131398 68.0C158.49766441553666 68.275, 157.65094544264082 70.19223430813125, 156.61689545376765 72.2605206847361C155.04366813420208 75.40725891535669, 154.39104442668872 75.8969111515006, 152.61840228245364 75.2605206847361C151.45328102710414 74.84223430813124, 149.0915 74.53, 147.37 74.56666666666668C145.64849999999998 74.60333333333335, 143.39849999999993 75.3345833333334, 142.3699999999999 76.19166666666678C141.34149999999985 77.04875000000015, 139.95831005586575 78.59375000000016, 139.29624456859082 79.6250000000001C138.5563098971643 80.77754101682505, 137.68806736438316 89.59154061155988, 137.04289207816947 102.5L135.99329501915707 123.5 131.24664750957854,123.5L126.5 123.5 127.0,95.0L127.5 66.5 131.11363636363637,66.0C134.43735695321803 65.54011413225915, 134.79838414355035 65.74068479355488, 135.61363636363637 68.5L136.5 71.5 140.03500790131008,68.0C142.72377863518946 65.33785670886614, 144.55438993187178 64.42783167003464, 147.68206672483944 64.1985294117647zM215.5,64.5C222.8015873015873 64.5, 225.26872600892207 64.90795206971677, 228.5735294117647 66.66176470588235C230.81397058823526 67.85073529411764, 233.37655282507734 70.10073529411764, 234.2681566047471 71.66176470588235C235.52173026031173 73.85653483895044, 236.1359062667244 79.6010450590975, 236.97720151303298 97.0C237.65678943204372 111.05466111110391, 238.52210741517746 120.2506967901241, 239.28257432005057 121.5C239.95215844402276 122.6, 240.5 123.64552801327748, 240.5 123.82339558506106C240.5 124.00126315684466, 238.15821346375148 124.00126315684466, 235.29602991944773 123.82339558506106C230.6006027481845 123.53160289723662, 229.96540906735765 123.20683368577221, 228.79602991944773 120.5C228.0832134637515 118.85, 227.41505102040819 117.4012755102041, 227.311224489796 117.280612244898C227.2073979591838 117.15994897959189, 225.40739795918378 118.20382854297478, 223.311224489796 119.60034460797107C221.2150510204082 120.99686067296734, 217.05129099276027 122.83615166564148, 214.05842442835615 123.6876579250247C210.627427611828 124.66381747050687, 206.66304149032516 125.03582327563818, 203.32892347225356 124.69448130688008C200.42056451080128 124.39672790751733, 196.40401070158197 123.3311614046391, 194.40324834065507 122.32655574492846C192.40248597972814 121.32195008521781, 189.5807614099743 118.7, 188.1327492967576 116.5C186.5524643861775 114.09903472385108, 185.5 111.1008446166303, 185.5 109.0C185.5 107.075, 186.29196074544012 103.8585348929421, 187.25991276764472 101.85229976209355C188.2278647898493 99.846064631245, 190.10175889172598 97.24288098513239, 191.42412188292622 96.06744721517663C192.74648487412645 94.89201344522088, 195.42429687587247 93.28080941098209, 197.37481522013957 92.4869938057571C199.3253335644067 91.69317820053212, 205.6504101515941 90.34332705062141, 211.4305409694449 89.48732458373333C217.21067178729575 88.63132211684524, 223.1908990401096 87.38399125814193, 224.71993486458683 86.71547823105931C226.2489706890641 86.04696520397668, 227.5 84.825, 227.5 84.0C227.5 83.175, 226.825 80.96826923076925, 226.0 79.09615384615388C225.175 77.22403846153851, 223.15 74.98603846153853, 221.5 74.12282051282057C219.85 73.2596025641026, 216.025 72.54133333333336, 213.0 72.52666666666667C209.975 72.512, 206.13257042253522 73.0694718309859, 204.4612676056338 73.76549295774646C202.53486842994334 74.56775004203747, 200.7046098314271 76.5149032926902, 199.4612676056338 79.08483212717104C197.58454941640073 82.96391874439546, 197.3275616929421 83.12110965782894, 193.5 82.73114288295244C191.3 82.50699838220925, 189.05 82.07486490490435, 188.5 81.77084626671933C187.88352613760716 81.43008345922601, 188.26705227521433 79.36382981631398, 189.5 76.38332911911763C190.83311667203333 73.1606822131995, 192.81711817087034 70.6243835339813, 195.45007077140832 68.77690510803515C197.62260969568288 67.25248769493571, 200.99760969568288 65.66655874026894, 202.95007077140832 65.25261854210899C204.90253184713373 64.83867834394904, 210.55 64.5, 215.5 64.5zM163.5,65.24999999999997C163.5 65.11249999999997, 165.75 64.99999999999994, 168.5 64.99999999999993L173.5 64.9999999999999 174.0,94.74999999999994L174.5 124.5 169.7630579297245,124.0L165.02611585944902 123.5 164.2630579297245,94.5C163.84337606837602 78.55, 163.5 65.38749999999999, 163.5 65.24999999999997zM225.0,96.0C225.92307692307693 95.6923076923077, 226.69230769230768 96.26923076923077, 227.0 97.5C227.275 98.6, 226.825 101.525, 226.0 104.0C225.175 106.475, 223.375 109.7556921086675, 222.0 111.29042690815C220.625 112.82516170763249, 217.5826602725248 114.79418470704763, 215.23924505005516 115.66603357351698C212.53418593080934 116.67242915558612, 209.2966321401219 117.06395491869404, 206.37220107707896 116.73834816115935C202.98445260075616 116.36115554730073, 201.06939395442612 115.46817780080613, 199.1329560270238 113.36274149579236C197.5102807738401 111.59845081497335, 196.5 109.34888228652028, 196.5 107.5C196.5 105.5293761880076, 197.36634671320536 103.75850781570658, 199.02486910994764 102.33900523560212C200.41354712041883 101.15045811518328, 203.33854712041884 99.80045811518329, 205.52486910994764 99.33900523560212C207.71119109947642 98.87755235602096, 212.65 98.05, 216.5 97.5C220.35 96.95, 224.175 96.275, 225.0 96.0z"/><path stroke="none" opacity="0.13176470588235295 " fill-rule="evenodd" d="M73.959843425873,43.37333138358318C73.70692954164285 43.16799912261242, 76.43704172571819 42.999999999999986, 80.02675939048484 42.99999999999998L86.5535187809697 42.99999999999997 103.02675939048484,82.74999999999999C112.08704172571818 104.6125, 119.5 122.8375, 119.5 123.25C119.5 123.6625, 116.7519920457717 124.0, 113.39331565727045 124.0L107.28663131454091 124.0 102.39331565727045,111.5L97.5 99.00000000000001 80.9383695047301,99.00000000000003L64.3767390094602 99.00000000000003 59.84246000300955,111.25000000000001L55.3081809965589 123.5 49.75973329682628,123.79636704558771C46.70808706197334 123.95936892066096, 44.12174786886693 123.84154771266022, 44.01231286770094 123.53454213891938C43.90287786653495 123.22753656517854, 50.69976814883172 105.14967051727649, 59.11651349502711 83.36150647691484C67.5332588412225 61.57334243655318, 74.21275731010314 43.578663644553934, 73.959843425873 43.37333138358318zM163.5,43.25C163.5 43.1125, 165.75 42.99999999999999, 168.5 42.99999999999999L173.5 42.99999999999999 174.0,49.000000000000014L174.5 55.00000000000003 169.5,55.00000000000003L164.5 55.00000000000002 164.0,49.250000000000014C163.725 46.087500000000006, 163.5 43.387499999999996, 163.5 43.25zM250.5,43.25C250.5 43.1125, 252.975 42.99999999999999, 256.0 43.0L261.5 43.0 262.0,83.75L262.5 124.5 257.2596111839235,124.0L252.01922236784696 123.5 251.25961118392348,83.5C250.84182503276557 61.5, 250.5 43.387499999999996, 250.5 43.25zM80.5,53.46430437622469C80.5 53.444671783148266, 80.5 53.66967178314827, 80.5 53.96430437622469C80.5 54.34646157787901, 93.23403024186621 87.46054192485747, 93.87685043389487 88.75000000000003C94.20344044976925 89.40511964069012, 68.63248676895199 90.33228421099282, 68.13922706365094 89.6832077641902C68.00681821550087 89.50897203449479, 70.50882487011802 82.4214720344948, 73.69924185168904 73.93320776419019C76.43367430939972 66.65811317172175, 80.5 54.419297161837406, 80.5 53.46430437622469zM146.98956352978445,64.171875C148.90311608840295 63.99140625, 152.05078124999991 64.21640624999999, 153.98437499999994 64.671875C155.91796874999997 65.12734375, 157.725 66.175, 158.0 67.0C158.275 67.825, 157.68708136792452 70.18497936320755, 156.69351415094337 72.24439858490565C155.07508189601285 75.59900855779435, 154.60663583870814 75.91130592933081, 152.19351415094337 75.24439858490565C150.71208136792453 74.83497936320754, 148.29989255014328 74.54383954154727, 146.83309455587394 74.59742120343839C145.3662965616046 74.6510028653295, 143.34129656160457 75.38225286532955, 142.33309455587386 76.22242120343849C141.32489255014312 77.06258954154742, 139.96495017138488 78.59375000000016, 139.31100038085555 79.6250000000001C138.59161882091385 80.75943301677549, 137.70563809245735 89.79435021211498, 137.0678354768212 102.5L136.01367019193106 123.5 131.5212029120576,123.5L127.02873563218414 123.5 126.26436781609206,94.24999999999997L125.5 64.99999999999996 130.5,64.99999999999997C135.37179487179486 64.99999999999997, 135.51282051282053 65.0833333333333, 136.0 68.24999999999999L136.5 71.5 140.0051885297845,68.0C142.38743939088326 65.62127544838276, 144.62498459368277 64.39488042671411, 146.98956352978445 64.171875zM215.5,64.5C222.61209963480522 64.5, 225.33104820331727 64.92940820349276, 228.46177360190495 66.54707510135793C230.98528900803564 67.85099250675923, 233.34500947970463 70.21071297842822, 234.96177360190495 73.04707510135793C237.49111982049124 77.4844211011009, 237.4982507116947 77.56647295560117, 237.0 96.5C236.5435087223291 113.84666855149432, 236.66832053087518 115.84806977863278, 238.434330886598 119.5C239.49821287422688 121.7, 240.39821287422689 123.61249999999998, 240.434330886598 123.74999999999997C240.4704488989691 123.88749999999996, 238.0025 123.99999999999994, 234.95 123.99999999999994C229.7924242424242 123.99999999999994, 229.33282828282825 123.8055555555555, 228.45 121.24999999999997C227.92749999999998 119.73749999999998, 227.30568181818182 118.19318181818183, 227.0681818181818 117.81818181818184C226.83068181818183 117.44318181818186, 225.93068181818182 117.72443181818176, 225.0681818181818 118.44318181818164C224.20568181818183 119.16193181818151, 221.475 120.81874999999968, 219.0 122.1249999999998C215.28482972136206 124.08578431372554, 213.01754385964944 124.5, 206.0 124.5C198.66666666666666 124.5, 196.95098039215685 124.15686274509804, 193.5 122.0C191.1969696969697 120.56060606060606, 188.65151515151516 117.8030303030303, 187.5 115.5C186.4 113.3, 185.5 109.925, 185.5 108.0C185.5 106.075, 186.34375000000006 103.03749999999994, 187.3750000000001 101.24999999999986C188.40625000000017 99.46249999999978, 190.20625000000018 97.16428571428543, 191.3750000000001 96.14285714285685C192.54375000000005 95.12142857142827, 194.97053571428566 93.54241071428548, 196.76785714285703 92.63392857142841C198.5651785714284 91.72544642857136, 203.29017857142838 90.49273902364399, 207.26785714285703 89.89457878270093C219.1123039978977 88.11341998431573, 226.5 85.4649864484645, 226.5 83.0C226.5 81.075, 226.05 78.60000000000001, 225.5 77.50000000000001C224.95 76.40000000000002, 223.15 74.85312500000002, 221.5 74.0625C219.85 73.27187499999998, 215.72171391752573 72.62499999999997, 212.326030927835 72.62499999999997C207.7996451080965 72.62499999999997, 205.44278831127713 73.14204058025948, 203.49420956181046 74.56249999999999C202.03239080018773 75.628125, 200.08567688266197 77.9625, 199.16817863397546 79.75C197.83195384766506 82.35327669175307, 196.88644198961188 83.00000000000001, 194.41666666666663 83.00000000000003C192.7208333333333 83.00000000000003, 190.6958333333333 82.88750000000002, 189.91666666666663 82.75000000000001C189.1375 82.61250000000001, 188.275 81.825, 188.0 81.0C187.725 80.175, 188.58221830985912 77.54255761843791, 189.9049295774647 75.15012804097313C191.22764084507034 72.75769846350835, 193.47764084507034 69.89671676633695, 194.9049295774647 68.7923909361478C196.33221830985912 67.68806510595866, 199.525 66.27050748752075, 202.0 65.64226289517467C204.475 65.0140183028286, 210.55 64.5, 215.5 64.5zM163.5,65.24999999999997C163.5 65.11249999999997, 165.75 64.99999999999994, 168.5 64.99999999999993L173.5 64.9999999999999 174.0,94.50000000000003L174.5 124.00000000000017 169.5,124.00000000000014L164.5 124.00000000000013 164.0,94.75000000000006C163.725 78.66250000000002, 163.5 65.38749999999999, 163.5 65.24999999999997zM224.5,95.98055200699255C225.06754059150177 95.70781923669665, 225.71622970424912 97.6622970424912, 226.0 100.5C226.4190909214664 104.69090921466396, 226.10353567522444 106.05306730256362, 224.04993919124354 108.91783216783213C222.7024057464275 110.79763986013981, 220.2274057464275 113.15517026987091, 218.54993919124354 114.15678863390124C216.8724726360596 115.15840699793158, 213.6308571697403 116.25090096425883, 211.34634926608953 116.58455300351736C209.06184136243877 116.9182050427759, 205.6532258245902 116.6945889756743, 203.7716480708705 116.08762840995826C201.8900703171508 115.4806678442422, 199.4842131474105 113.9751494023905, 198.42529880478097 112.74203187251C197.36638446215144 111.5089143426295, 196.5 109.375, 196.5 108.0C196.5 106.625, 197.64828432268985 104.25115467443428, 199.05174293931077 102.72478816540949C201.27201583558514 100.31007486383159, 203.02565861521398 99.72300098673192, 212.55174293931077 98.20534017240206C218.57328432268983 97.24601028527275, 223.95 96.24485561083847, 224.5 95.98055200699255z"/><path stroke="none" opacity="0.06483660130718955 " fill-rule="evenodd" d="M73.90018910407315,43.338270718643656C73.68008509683291 43.15222182338964, 76.47437693100267 42.999999999999986, 80.10972651333927 42.99999999999999L86.71945302667855 43.0 102.10972651333927,80.25C110.57437693100267 100.73750000000001, 118.13002954417557 118.98448930782216, 118.9000656537235 120.7988651284937L120.300131307447 124.09773025698739 113.67990481068412,123.7988651284937L107.05967831392125 123.5 102.34060094656161,111.75000000000003L97.62152357920196 100.00000000000006 80.94768822805689,100.00000000000006L64.27385287691182 100.00000000000006 59.88692643845591,112.00000000000006L55.5 124.00000000000007 49.92895417590542,124.00000000000006C46.86487897265339 124.00000000000004, 44.23586099434526 123.65899829705546, 44.08669200188734 123.24221843790096C43.93752300942942 122.82543857874647, 50.6745787271049 104.75266040213612, 59.05792693005507 83.08048915654462C67.44127513300523 61.408317910953116, 74.12029311131337 43.52431961389768, 73.90018910407315 43.338270718643656zM163.5,43.25C163.5 43.1125, 165.975 42.99999999999999, 169.0 43.0L174.5 43.0 175.0,48.99999999999999L175.5 54.999999999999986 170.0,54.999999999999986L164.5 54.99999999999999 164.0,49.25C163.725 46.0875, 163.5 43.387499999999996, 163.5 43.25zM250.5,43.25C250.5 43.1125, 252.975 42.99999999999999, 256.0 43.0L261.5 43.0 262.0,83.49999999999984L262.5 123.99999999999969 257.0,123.9999999999997L251.5 123.99999999999972 251.0,83.74999999999986C250.725 61.61249999999993, 250.5 43.387499999999996, 250.5 43.25zM80.51428342303169,54.36785828848416C80.52213930569913 54.29518034715044, 83.52597818738008 62.17018034715044, 87.18948093787827 71.86785828848416L93.85039502969316 89.5 81.13610714460319,89.77753427171865C74.1432488078037 89.93017812116389, 68.29642059286566 89.89005745474171, 68.14315555585198 89.68837723522489C67.9898905188383 89.48669701570809, 70.03248118544782 83.5118065934347, 72.68224592609536 76.41084296350625C75.17704875373944 69.72515352429441, 80.4621091941382 54.85054313844703, 80.51428342303169 54.36785828848416zM148.64999999999998,64.20000000000002C150.9916824525182 64.0307217504204, 154.15309539546152 64.57654769773083, 155.90528750826172 65.45264375413092L159.0105750165235 67.0052875082618 156.98147049011044,71.7526437541309C155.7607219676514 74.60874507729746, 154.46387837598513 76.30080966913445, 153.7261829818487 76.0C151.52171572033936 75.10108552551198, 143.51183511013784 75.5872429611803, 142.0 76.71171735585826C140.5415414749675 77.7964912548778, 138.8750751150195 80.63942774998377, 138.0 83.5355850640423C136.8147265574015 87.45837785179562, 136.60490885246716 92.22426426258446, 137.0 106.25000000000003L137.5 124.00000000000007 132.0,124.00000000000009L126.5 124.00000000000009 126.0,94.50000000000001L125.5 64.99999999999994 130.5,64.99999999999996C135.37179487179486 64.99999999999997, 135.51282051282053 65.0833333333333, 136.0 68.24999999999999L136.5 71.5 138.45516304347825,68.73845108695656C139.5305027173913 67.21959918478268, 141.33050271739128 65.64459918478268, 142.45516304347825 65.23845108695656C143.57982336956522 64.83230298913045, 146.36749999999998 64.36500000000001, 148.64999999999998 64.20000000000002zM215.5,64.7499999999999C224.0631443610857 64.53592139097285, 225.94806780517968 64.78737112778286, 228.61839124992565 66.5C230.33350643738473 67.6, 232.68177150520057 69.625, 233.83675806729417 71.0C235.74894308538745 73.27643722115032, 236.03575160523044 75.5120650096471, 237.0440061758427 96.0C237.6690121692989 108.7002470762278, 238.66276512274194 119.58886143597469, 239.32563935847418 121.0C239.97153771131337 122.375, 240.5 123.61249999999998, 240.5 123.74999999999997C240.5 123.88749999999996, 238.0205 123.99999999999999, 234.99 124.00000000000003C229.82777777777775 124.00000000000011, 229.39668481548702 123.81064730792512, 228.16000000000003 121.00000000000007C227.43400000000003 119.35000000000005, 226.63369230769234 118.00000000000003, 226.38153846153847 118.00000000000001C226.1293846153846 118.0, 224.54861814831867 118.9404191616767, 222.8687240902808 120.08982035928155C221.18883003224292 121.23922155688639, 217.9811377245507 122.81422155688638, 215.74051896207587 123.5898203592815C213.49990019960103 124.36541916167664, 208.92916666666696 124.99999999999994, 205.58333333333354 124.99999999999994C201.17911537332887 124.99999999999997, 198.34694980276447 124.37895732767288, 195.3225689483483 122.74999999999999C193.02498186993986 121.51249999999999, 189.87498186993986 118.925, 188.3225689483483 117.0C186.16248723178734 114.32148757167211, 185.5 112.44380169356444, 185.5 109.0C185.5 106.5, 186.38888888888889 102.72222222222223, 187.5 100.5C188.6 98.3, 191.15490211564094 95.46320922762217, 193.17756025697986 94.19602050582705C195.2306808380234 92.90974716501344, 200.08956422447093 91.36373881478015, 204.17756025697986 90.69602050582705C208.20490211564092 90.03820922762218, 214.875 88.825, 219.0 88.0L226.5 86.5 226.5,83.0C226.5 80.57535862014919, 225.65733810692794 78.5841166044657, 223.7573645940151 76.51904850688294C221.270076855964 73.81563263163558, 220.32111525663748 73.50321700284815, 213.56476834948114 73.16345817849404C208.18840465037474 72.89309506144129, 205.44987051539337 73.2010802804562, 203.72584078126272 74.26997871561719C202.41190907994456 75.08461637043442, 200.353264368282 77.5395193303964, 199.15107475534592 79.7253186266438C197.22956328878143 83.21897583857917, 196.63486868474726 83.6269826648718, 194.23263772954925 83.09974958263771C192.72968697829717 82.76988731218697, 190.45640670553937 82.37634839650144, 189.18090379008748 82.22521865889209C186.97595218526666 81.96396190013365, 186.92673275029722 81.7916938777406, 188.18090379008748 78.72521865889209C188.90640670553938 76.95134839650144, 190.60580882352943 73.99084558823527, 191.9573529411765 72.14632352941172C193.30889705882356 70.30180147058816, 196.12139705882356 67.93930147058816, 198.20735294117645 66.89632352941172C200.29330882352937 65.85334558823527, 202.78749999999997 64.99999999999996, 203.74999999999997 64.9999999999999C204.71249999999998 64.99999999999984, 210.0 64.88749999999985, 215.5 64.7499999999999zM163.5,65.25C163.5 65.11250000000001, 166.2 65.00000000000001, 169.5 65.0L175.5 65.0 174.73690476190484,94.25L173.97380952380965 123.5 169.23690476190484,123.5L164.5 123.5 164.0,94.5C163.725 78.55, 163.5 65.3875, 163.5 65.25zM224.5,96.0C225.05 95.725, 225.725 97.3, 226.0 99.5C226.3367638576041 102.19411086083275, 225.90230555331436 104.73890072224059, 224.6692337312284 107.2948113207546C223.662312283404 109.38195754716963, 221.69113155132467 111.94143263613762, 220.2888321043854 112.98253374068346C218.88653265744614 114.02363484522931, 215.6050770811739 115.38184611633164, 212.9967086015582 116.00078100979978C209.63491040406825 116.79849583632281, 207.1113105437433 116.8235822027556, 204.32847541611454 116.08694937485387C202.16931564373627 115.5154070821655, 199.52461604095575 114.02453071672358, 198.45136518771338 112.77389078498295C197.378114334471 111.52325085324233, 196.5 109.375, 196.5 108.0C196.5 106.59159083414251, 197.69913262986626 104.32836439515114, 199.24629603043576 102.81667863039262C200.97233023107637 101.13022370931944, 204.13012001671822 99.64420498666445, 207.74629603043576 98.81667863039262C210.9108332136961 98.09250538367668, 215.75 97.275, 218.5 97.0C221.25 96.725, 223.95 96.275, 224.5 96.0z"/></svg>