<svg version="1.1" xmlns="http://www.w3.org/2000/svg" xmlns:xlink="http://www.w3.org/1999/xlink"
          width="161" height="200" viewBox="0 0 161 200"><path stroke="none" fill="#000000" fill-rule="evenodd" d="M88.5,2.9999999999999973C88.5,2.9999999999999973 89.19350467289722,2.5407476635514015 89.27056074766358,2.489719626168224C89.34761682242993,2.4386915887850464 93.24908166617992,3.4511915887850453 93.60552168516355,3.614719626168223C93.9619617041472,3.778247663551401 99.26845703125,5.249999999999999 99.50162760416666,5.249999999999999C99.73479817708332,5.249999999999999 102.58333333333334,6.375000000000006 102.66666666666667,6.500000000000007C102.75,6.625000000000008 104.02499999999998,7.487500000000017 104.08333333333331,7.45833333333335C104.14166666666664,7.429166666666683 105.39523809523806,7.895238095238113 105.47619047619044,7.976190476190494C105.55714285714282,8.057142857142875 108.02142857142853,8.496428571428586 108.21428571428567,8.464285714285728C108.40714285714282,8.43214285714287 111.18950892857139,9.189508928571431 111.30580357142853,9.305803571428573C111.42209821428567,9.422098214285715 114.06714348591554,10.68474911971832 114.24474276212837,10.708749021909245C114.42234203834121,10.73274892410017 118.79170193611074,13.181662725215403 119.0995870929834,13.429764356481726C119.40747224985607,13.67786598774805 123.22314126394052,15.275929368029725 123.33921933085502,15.205390334572478C123.73673945144255,14.963822863374777 124.17122964361576,15.815081425536942 124.0,16.5C123.95,16.7 123.95,19.625 124.0,19.75C124.05,19.875 125.4912491536899,20.999999999999986 125.60138794854433,20.999999999999986C125.71152674339876,20.999999999999982 129.21144211238996,26.17499999999998 129.490182802979,26.749999999999982C129.76892349356802,27.324999999999985 131.92767433987814,32.49999999999999 131.88879485443465,32.5C131.8499153689912,32.5 133.29999999999998,34.52499999999999 133.49999999999997,34.749999999999986C133.69999999999996,34.97499999999999 134.59999999999997,36.99999999999998 134.49999999999997,36.99999999999997C134.1666666666667,36.99999999999997 134.16666666666674,37.8333333333334 134.5,38.249999999999986C134.6,38.374999999999986 135.95,41.3 136.0,41.5C136.05,41.7 138.3,47.55 138.5,48.0C139.34444444444443,49.9 140.2111111111111,55.1 140.0,57.0C139.73809523809524,59.357142857142854 140.45238095238096,62.92857142857143 141.5,64.5C141.7,64.8 144.72527955271565,70.99720447284342 144.8614217252396,71.3857827476038C145.59275854913918,73.4731712182822 145.82416550029137,79.95256585054297 145.3614217252396,85.3857827476038C145.15320264414441,87.83054697932256 142.98343122768884,98.91227973770012 142.5,100.0C142.3,100.45 138.7,109.9 138.5,110.5C138.3,111.1 135.6,120.1 135.5,120.5C135.4,120.9 134.5,131.7 134.5,132.5C134.5,134.786494684332 136.6077245940028,150.14154022018974 137.45121747866108,154.0L140.40243495732216,167.5 L147.82720539125992,174.43700604370062C148.5696824346537,175.13070664807069 154.57400337052542,181.71299831473735 154.49867309778404,181.75066345110804C154.42334282504268,181.78832858747873 148.6330306267807,177.1200231481482 148.06499287749295,176.56365740740745C147.4969551282052,176.00729166666673 141.72625093353255,171.00000000000006 141.6530993278567,171.00000000000006C141.5799477221808,171.00000000000003 143.8411843524746,178.77205933988768 144.1655844726276,179.6356214887641L147.4095856741573,188.27124297752817 L145.45479283707866,194.13562148876417C145.2593135533708,194.72205933988775 142.83876811594197,200.00000000000009 142.7652979066022,200.00000000000006C142.6918276972624,200.00000000000006 143.81241570956698,194.78061247339085 144.01039569805172,194.2006805259898L145.99019558289908,188.40136105197965 L142.47635006995273,179.35164232693603C142.12496551865812,178.44667045443168 136.50437750635353,158.06351044964262 136.2312522785032,156.70368676605932C135.95812705065288,155.343863082476 132.7114485981309,143.29351148031594 132.62383177570098,143.31440720810372C132.5362149532711,143.33530293589146 130.2862149532711,147.50344721231676 130.12383177570098,147.94567862635404C128.89162899090044,151.30143744359845 128.80923296953398,154.43002429045924 129.78218884120173,160.91790196276253C129.9104077253219,161.7728928823661 130.77302101837327,169.6134894908133 130.74064805570325,169.6296759721483C130.70827509303322,169.64586245348332 128.65430513595166,163.81034743202412 128.45845921450152,163.1457703927492C128.26261329305137,162.48119335347428 125.41404555314536,155.30569414316705 125.29338394793929,155.1729934924078C124.59401630726667,154.40384624893548 123.38816294599685,154.35406331200232 122.42496289530771,155.05457243977622C122.03272824142786,155.33983400623427 121.42660614316823,157.11759882074693 121.63157894736841,157.3815789473684C121.84607025059228,157.6578177469749 121.70723709742886,158.0094922969057 121.44720802202124,157.84860401101056C121.34192882422337,157.7834644121116 114.62364524213379,164.30846441211162 113.98244848636617,165.09860401101056C113.34125173059853,165.8887436099095 107.00568758770235,173.0 106.94293277203708,173.0C106.88017795637181,173.0 101.48556100220377,176.26487914053163 100.94891393407259,176.62764348947957C100.41226686594142,176.99040783842753 91.95833030449504,183.51540783842754 91.55565108802105,183.87764348947957C89.02047136235267,186.15819942803213 87.8246899168003,188.29924271017015 88.32749125939347,189.657654494382C88.93606364807921,191.30182652477689 88.0179789262321,192.23153457132636 84.46969714713626,193.56428984376544C83.00190290494571,194.1156018975769 80.39079075976782,196.06198600152317 80.65663534938344,196.4066353493834C80.91353027861649,196.73968207400097 80.63075897692244,196.97845538615348 80.24999999999997,196.75C80.12499999999996,196.675 77.26923076923069,196.86538461538464 77.07692307692301,196.96153846153848C76.42251950947598,197.288740245262 72.95904124860638,197.1238127090301 71.82692307692304,196.71153846153845C71.49423076923074,196.5903846153846 65.35,192.35 65.0,192.0C64.65,191.65 59.82000000000001,186.07749999999996 59.63333333333334,185.80833333333328C59.44666666666667,185.5391666666666 57.27900314280102,183.3604984285994 57.22481830681595,183.38759084659196C57.17063347083087,183.4146832645845 60.200633470830866,188.98718326458456 60.59148497348261,189.57925751325868C60.98233647613434,190.1713317619328 66.3,197.525 66.5,197.75C66.7,197.975 67.53001285347042,200.0 67.42223650385603,200.0C67.31446015424163,200.0 63.71446015424163,197.075 63.42223650385603,196.75C63.130012853470426,196.425 57.001766258841954,187.96323639780564 56.61307362093551,187.34804044200627L52.72614724187101,181.19608088401253 L47.39505817227614,190.34804044200627L42.063969102681256,199.5 L37.580172528661336,199.79105096210174C37.13179287125934,199.82015605831188 33.01820995101381,199.60998643348566 33.009524839499626,199.55752915673924C33.00083972798544,199.5050718799928 36.78247054839681,198.106283415279 37.21133686217892,198.00331975150164C38.95326667476074,197.58511139663068 42.415110434900576,195.34846672932676 43.04103311497085,194.23684155686414C43.19513642646794,193.9631574011777 47.62868830570051,186.2713012638748 47.967201869673715,185.69033473763866L51.35233750940572,179.88066947527733 L48.92616875470286,177.67864772353403C48.624977464971366,177.40528266179265 44.748285523542144,169.79379007919954 44.5,168.9883129858954C44.3,168.33948168730583 40.7,160.25 40.5,160.0C40.3,159.75 34.22562103039955,152.15783988928953 33.750690033777275,151.56426654365504C33.275759037155005,150.9706931980205 23.39585183559629,134.44721881438704 22.773015365378704,133.20485056184003L16.54465066320286,120.78116803637005 L17.52232533160143,110.39058401818505C17.904201119170025,106.3320637521936 17.858670960101428,100.00000000000007 17.447612732095507,100.00000000000006C17.342374005305057,100.00000000000006 14.662085768747934,95.08726567532307 14.46951469147648,94.5414063059145L12.543803918761947,89.08281261182897 L14.784858267306067,85.16472766017966C15.497802477625113,83.91827150723933 16.505674777834116,79.96927906250106 16.262956307925094,79.37332135426519C16.186660677132586,79.18598921883867 14.6,73.0 14.5,72.5C14.4,72.0 12.6,66.6 12.5,66.5C12.166666666666666,66.16666666666667 12.166666666666666,62.5 12.5,61.0C13.418472652218782,56.86687306501548 13.296181630546954,56.44187402056339 11.0,55.78703703703703C10.110644257703132,55.53340595497459 9.144257703081246,54.40595497458241 9.499999999999991,54.03703703703705C9.846320346320319,53.67789001122338 9.601190476190439,53.00000000000003 9.124999999999986,53.00000000000003C8.499999999999979,53.00000000000003 8.227272727272714,51.90909090909092 8.624999999999995,50.99999999999998C9.062500000000005,49.999999999999936 8.750000000000014,48.99999999999994 8.0,48.99999999999996C7.242127153891877,48.999999999999964 7.489502871855835,48.193152454780325 8.5,47.36918604651163C9.613369794943756,46.46133654801826 9.87460905179069,45.535124637379155 9.089285714285724,45.27990033222593C8.071428571428598,44.949104251650624 8.071428571428598,44.42857142857142 9.089285714285724,43.41071428571429C10.107142857142852,42.39285714285716 9.943037974683534,42.00000000000001 8.5,42.000000000000014C7.403225806451593,42.000000000000014 6.929032258064513,41.300000000000026 7.450000000000015,40.45C7.804477611940337,39.871641791044745 7.491044776119451,37.85671641791048 6.950000000000015,37.23571428571428C5.8053157061213225,35.921864825252555 5.921125111891476,35.682837331188225 7.5,36.1005291005291C7.948165869218501,36.21909149979326 10.663875598086124,35.221483844290866 11.0,34.81481481481482C11.15,34.63333333333333 14.3,33.0 14.5,33.0C16.289734075448372,33.0 16.311636775922498,32.861111111111114 14.708333333333325,31.678921568627445C13.153955383199145,30.532807047256284 13.327231329690317,30.04388192435444 16.01666666666665,27.987254901960775C16.63362573099412,27.515462676298597 18.46920706784882,24.768961831101038 18.30833333333333,24.55833333333333C18.010958079461762,24.168986351460248 18.764226175987872,24.05948865530035 19.5,24.38510848126232C20.279981114258728,24.73029243098974 21.194995278564683,24.577790070272076 21.0,24.135108481262318C20.940486533449175,23.999999999999993 22.2619461337967,22.999999999999996 22.5,22.999999999999996C22.7,22.999999999999996 24.05,22.285372390660118 24.0,22.205969322955685C23.95,22.12656625525125 25.70455665024631,19.516344580374412 25.94950738916257,19.305723017536973C26.194458128078825,19.095101454699535 29.344458128078823,17.784729064039418 29.44950738916257,17.84975369458129C29.56964786537862,17.924119663446557 30.057182923028975,17.392957307572445 30.0,17.25C29.95,17.125 30.911363636363614,16.000000000000004 31.06818181818179,16.000000000000007C31.22499999999997,16.000000000000007 34.28534026465024,13.984584120982992 34.46855989001543,13.760649023314436C34.65177951538061,13.536713925645879 41.790415879017,9.230416746416378 42.40037807183363,8.975874379726102C43.01034026465027,8.721332013035825 48.95,6.500475220049598 49.0,6.508255720852516C49.05,6.516036221655432 50.517857142857146,5.540190543742068 50.63095238095239,5.4239827453932214C50.74404761904763,5.307774947044375 52.472994987468674,4.972994987468652 52.55200501253133,5.052005012531307C52.63101503759399,5.131015037593962 54.72827055409052,4.833985051570503 54.8822889197497,4.721971694727463C55.21992834740271,4.476415747343463 68.9452146911704,3.366886611769438 72.46123628817075,3.3009190631485295C74.06511265935369,3.2708271568336755 88.5,2.999999999999997 88.5,2.9999999999999973zM71.5,38.52973568281938C71.7,38.432709251101315 75.12871857173036,37.463920956150965 75.30968730192262,37.453304243985656C75.49065603211488,37.44268753182035 80.29128393909161,39.4268323940271 80.64371830967454,39.6579096464376C81.85745891321373,40.45371126856943 85.00685732434553,41.35864921865777 85.44746952788248,41.0382039797218C85.86133673848938,40.73720964473496 88.24965566132627,41.25519053956056 88.9777882959153,41.803862894450475C91.00370025364137,43.330455484648795 91.10898010105137,44.03728072278537 90.0310164424514,48.875C89.28959047794478,52.20239480826248 89.34126640415195,55.02712792957574 90.16666666666667,56.289974619289325C90.30000000000001,56.49397208121826 95.22813273624165,60.93583230806211 95.64236970693517,61.22537487133805C98.80730536320313,63.43759552606385 100.45902619903664,66.14745171150919 102.64236970693517,72.70975702998832C102.92813273624165,73.56865268257741 106.4,81.38929245573357 106.5,81.3993567779396C106.6,81.40942110014564 107.95,83.07500000000002 108.0,83.25000000000003C108.05,83.42500000000003 109.89499999999994,85.00000000000003 110.04999999999994,85.00000000000003C110.23333333333315,85.00000000000001 112.87849462365595,81.6935483870965 113.04999999999994,81.25C113.19499999999995,80.875 117.479,74.629 117.81,74.31C118.141,73.991 121.741,71.741 121.81,71.81C121.879,71.879 122.5,72.05 122.5,72.0C122.5,71.95 125.9743815139666,67.73805285952422 126.36042390440734,67.32005873280468C126.74646629484808,66.90206460608515 132.41629388105494,62.60896115780929 132.66023233352607,62.54994379027595C133.25493519046142,62.406064066823845 137.51962676826773,63.390815952745 138.29980842911874,63.85216766616696C138.61982758620687,64.0414074212894 142.85,68.78451086956527 143.0,69.1222826086957C143.45889398196067,70.15562539778466 144.15296466065357,75.97035339346442 144.0,77.5L143.5,82.5 L142.5,77.0C142.4,76.45 140.61355421686747,69.05210843373494 140.51506024096386,68.78012048192771C140.41656626506023,68.50813253012048 137.44611171960565,65.15585980284774 137.21455519045875,65.05537300718022C136.21206220658567,64.62032888210322 133.36820513738715,64.79504951249841 132.19949494949492,65.36348781937012C131.9295454545454,65.49478609625663 126.82776051408432,70.07856377437224 126.53084501564925,70.45657412838746C126.23392951721416,70.83458448240268 123.84537867579147,74.4071085521858 123.87689963629069,74.42604531703537C123.9084205967899,74.44498208188494 126.97873700578248,74.21732328488824 127.2883623129491,74.17309109815014C128.82472647447722,73.95361050364612 129.7335521830431,73.21921957239104 129.09230769230766,72.71538461538462C128.27863247863243,72.07606837606839 128.29999999999998,71.19999999999999 129.14999999999998,70.35C129.28499999999997,70.215 132.525,69.0 132.75,69.0C132.975,69.0 136.79999999999993,69.89999999999995 136.99999999999991,69.99999999999994C137.1999999999999,70.09999999999994 140.12499999999991,72.12499999999994 140.24999999999991,72.24999999999994C140.37499999999991,72.37499999999994 141.05,74.4 141.0,74.5C140.95,74.6 139.675,73.92500000000001 139.58333333333334,73.75C139.49166666666667,73.575 137.69166666666666,72.00000000000001 137.58333333333334,72.0C137.47500000000002,72.0 136.95,73.125 137.0,73.25C137.05,73.375 139.3,78.55 139.5,79.0C140.80666666666662,81.93999999999988 141.15333333333334,84.88666666666677 140.50000000000006,87.5C140.40000000000006,87.9 137.70000000000007,93.52499999999999 137.50000000000006,93.75C137.30000000000004,93.975 136.4,96.0 136.5,96.0C136.6,96.00000000000001 139.75,93.52500000000002 140.0,93.25000000000001C140.25,92.97500000000001 142.05,89.37500000000001 142.0,89.25000000000003C141.95,89.12500000000003 142.4,88.00000000000004 142.5,88.00000000000004C142.6,88.00000000000004 143.95,90.47500000000002 144.0,90.75000000000003C144.1818181818182,91.75 142.59090909090907,97.00000000000003 141.5,99.0C141.2,99.55 136.41271626297575,106.52500000000002 136.18079584775083,106.75000000000003C135.66403887949062,107.2513371407851 131.38952966807634,109.00000000000006 130.68079584775083,109.00000000000006C130.36271626297574,109.00000000000004 127.05,108.32500000000002 127.0,108.25000000000003C126.95,108.17500000000003 126.5,112.45 126.5,113.0C126.5,116.75660661831604 127.29245153712907,119.179562882144 129.0,120.64386259065742C130.40287392602767,121.84689016242518 131.01947578930668,123.44325112432136 130.40503875968992,124.28145948988221C129.635740296375,125.33092815222156 129.04090138335022,125.10225345837553 128.40503875968992,123.51259689922479C128.3145348837209,123.2863372093023 126.6,121.69999999999999 126.5,121.74999999999999C126.4,121.79999999999998 125.95,123.26249999999999 126.0,123.37499999999999C126.05,123.48749999999998 126.95,133.05 127.0,134.0L127.5,143.5 L124.0,147.5C123.65,147.9 115.1,155.55 114.5,156.0C113.9,156.45 100.65134916351852,165.25632757690238 99.7792768483539,165.78480841878041C98.90720453318929,166.31328926065848 88.95530125705827,171.83443590652433 88.72160654154165,171.91941580307582C88.48791182602503,172.0043956996273 86.018690620015,172.0373761864623 85.97802742375272,171.956060788448C85.93736422749045,171.87474539043373 87.78926750362147,167.70359874456787 88.03569773056498,167.32145340415263C88.28212795750848,166.93930806373737 90.5,162.15 90.5,162.0C90.5,161.85 92.75,154.65 93.0,154.0C93.25,153.35 96.85,140.75 97.0,140.0C97.15,139.25 98.95,128.56250000000003 99.0,128.12500000000003C99.05,127.68750000000003 98.92148117839605,124.08750000000003 98.85720130932896,124.12500000000003C98.79292144026185,124.16250000000002 96.54292144026185,132.6 96.35720130932896,133.5C96.17148117839605,134.4 93.15,147.9 93.0,148.5C92.85,149.1 89.7,158.55 89.5,159.0C89.3,159.45 87.16250000000002,164.56875 87.12500000000003,164.6875C87.08750000000003,164.80624999999998 86.419165123814,165.70624999999998 86.38240569312666,165.6875C86.3456462624393,165.66875 88.48314626243928,156.5 88.75740569312663,155.5C89.03166512381397,154.5 93.3,138.3 93.5,137.5C93.7,136.7 95.5,124.55 95.5,124.0C95.5,121.36666666666666 94.1969696969697,116.2848484848485 93.0,114.25C92.75,113.825 89.73499999999999,110.0 89.64999999999998,110.0C89.56499999999997,110.0 90.91499999999998,113.82499999999999 91.14999999999998,114.25C92.47619047619048,116.64842958459982 93.5,121.54964539007086 93.5,125.5C93.5,126.2 92.15,137.45 92.0,138.0C91.85,138.55 89.15,148.0 89.0,148.5C88.85,149.0 85.7,158.45 85.5,159.0C85.3,159.55 80.49209213644235,167.79428453374223 80.15788015160263,168.16031614860248C79.82366816676289,168.52634776346275 74.42366816676288,172.57634776346273 74.15788015160263,172.66031614860248C73.89209213644236,172.74428453374225 64.45666833166838,174.59195804195804 63.674075924075986,174.7132867132867C59.23111614610198,175.40209790209784 54.47607291843607,175.40209790209784 52.674075924075986,174.7132867132867C52.35666833166839,174.59195804195804 48.15,171.92500000000004 48.0,171.75000000000006C47.19360043985539,170.80920051316468 46.91672634815201,168.2659989003616 47.401224229843834,166.25000000000006C48.10564478567798,163.31890139334607 47.405745087914,160.72479377932632 44.19616939913868,154.37078764107906C43.785541493083784,153.55786640518699 38.44335139352116,144.86945949460102 38.26040262184688,144.71700218487246C38.077453850172596,144.5645448751439 36.065904951205326,141.7588433472937 36.025348289661025,141.5995560428167C35.728332332178084,140.43301842722835 36.50741474371924,140.3065590350403 38.93615346337164,141.1270788727607C39.267790642287004,141.2391184602321 41.579797979798016,142.92020202020203 41.50505050505055,142.9949494949495C41.43030303030307,143.069696969697 42.34655303030309,147.04157196969703 42.523106060606125,147.408143939394C42.69965909090916,147.77471590909096 46.00821908182389,152.50684923485326 46.199283828289154,152.66606985690765C47.24068671653703,153.53390559711423 51.15582144709806,154.04353013381868 54.80496564647093,153.78625266323175C57.335569381628915,153.60783622023365 65.23210687067731,151.50595217168438 67.5,150.40711462450594C68.1,150.11640316205535 75.3,145.92499999999998 75.5,145.74999999999997C75.7,145.57499999999996 76.95085280373823,143.99999999999997 76.88983644859803,143.99999999999997C76.82882009345784,143.99999999999997 69.8523481308409,147.15000000000003 69.1382009345792,147.50000000000003C66.7708769385596,148.66021375277273 59.15665331553158,151.00000000000006 57.74836448598117,151.00000000000006C57.323528037383056,151.00000000000003 50.35,150.13913043478266 50.0,150.04347826086962C49.65,149.94782608695655 45.15,147.47282608695656 45.0,147.2934782608696C43.73663905487306,145.7829380003917 43.784744639138815,145.71067245050813 45.304930124223745,146.83540372670814C45.485423136646126,146.96894409937894 51.52001375520026,148.5732549217131 52.01003081150613,148.61797130707942C52.584018010011796,148.6703503670191 62.32342602836587,147.67388583383106 63.04163914882111,147.48929834960194C63.654782926246746,147.33171466848785 72.02019230769261,144.4899038461537 72.33653846153874,144.33173076923066C72.65288461538486,144.17355769230758 74.87236842105264,142.43618421052633 74.80263157894737,142.4013157894737C74.73289473684211,142.36644736842106 71.58289473684212,143.15394736842106 71.30263157894737,143.2763157894737C71.02236842105263,143.39868421052634 68.05,144.5 68.0,144.5C67.95,144.5 66.39868421052631,145.1986842105263 66.27631578947367,145.27631578947367C66.15394736842104,145.35394736842105 64.30894736842106,145.30894736842103 64.2263157894737,145.2263157894737C64.14368421052633,145.14368421052632 62.7298591549296,145.40521126760564 62.65539906103288,145.51690140845074C62.58093896713616,145.6285915492958 57.67593896713615,146.86847791293218 57.205399061032864,146.89455292360225C52.64075953192669,147.14750282834507 52.577919681081,147.1102809765375 55.104748603352,145.65027721347548C55.3652234636872,145.49977463179275 63.0152234636872,142.95488826815637 63.604748603352,142.82262569832398C64.1942737430168,142.69036312849155 72.73334742715937,141.47563751354528 73.0926082523993,141.47293057060585C75.53690353714168,141.4545134001324 77.61451227301906,140.17598494728477 79.5926082523993,137.47293057060585C79.88334742715938,137.07563751354527 82.59642857142856,132.9535714285714 82.60714285714285,132.8928571428571C82.61785714285713,132.83214285714283 83.51785714285712,134.40714285714282 83.60714285714285,134.6428571428571C83.69642857142857,134.87857142857138 85.4,136.99999999999997 85.5,137.0C85.83333333333333,137.0 85.83333333333333,140.5 85.5,142.25C85.4,142.775 82.75735294117646,151.01617647058822 82.56372549019608,151.406862745098C82.37009803921569,151.79754901960783 81.19415464298925,155.59707732149462 81.25712171661115,155.62856085830555C81.32008879023306,155.6600443951165 84.41273584905659,150.79386792452829 84.69339622641508,150.22169811320754C86.35907532534274,146.8259523199315 87.70325716893053,140.84137095925036 88.0,135.5C88.21238095238094,131.67714285714297 87.68507936507936,124.39079365079361 87.08333333333334,122.83333333333333C86.94166666666669,122.46666666666667 84.93943313786365,119.53028343106817 84.85862941244108,119.57068529377945C84.77782568701852,119.61108715649073 79.13588857728257,115.16527960741897 78.58981040162337,114.63089912814416C78.04373222596415,114.09651864886936 69.60994880561468,106.9117154437899 69.2189399345684,106.64778445583366C68.37579720111924,106.07866311075547 63.91721039294621,104.49019640244175 63.534630502997956,104.62262790280845C62.53111869039264,104.96999737640259 63.875814268197075,106.39475279831217 66.6302048909452,107.90250512256804C67.82755787041195,108.55793566420435 74.51650648320671,114.69019877164034 75.5,116.03411450789523C75.9,116.5807030571057 80.83269230769231,123.62884615384615 80.98076923076923,123.86538461538461C82.42205128205129,126.1676923076923 82.39538461538461,126.19435897435898 79.98076923076923,124.86538461538461C77.82526651411466,123.67902265505535 77.6311151839842,123.75239672916959 78.5,125.42500000000004C79.25498575498577,126.87834757834767 79.00997150997154,127.1233618233619 77.5,126.42500000000004C77.3,126.33250000000004 68.07183682105172,125.18302823830912 67.24648535672414,125.1478091536768C64.1269427682544,125.01469321557526 55.90208432491634,125.79223652238163 54.02397676565911,126.39780915367675C53.52707737088019,126.55802823830906 46.55524054982847,127.99999999999989 46.27749140893498,127.99999999999989C45.99974226804147,127.99999999999989 40.8,129.60287610619463 40.5,129.78097345132738C40.2,129.9590707964601 36.6,133.97956259973887 36.5,134.24818656608153C36.4,134.5168105324242 34.68688456294504,136.72172112521451 34.59653840327226,136.69808722473744C34.506192243599486,136.67445332426038 31.368537000713154,132.54558233531904 31.110254800065224,132.11045279258042C29.074027419595367,128.68000854689473 28.814764525959465,127.25080122330246 29.88516059810587,125.3570235571973C30.020933378557864,125.1168101763976 31.015896784293375,122.06249650540288 30.990675493367547,121.96334170053647C30.96545420244172,121.86418689567007 28.831154421260102,123.00948650852986 28.61923129205464,123.23589682593624C27.527438434485468,124.40232527738003 26.742408282271384,127.1968579758997 27.0,129.0C27.05,129.35 28.4,134.3 28.5,134.5C28.6,134.7 34.0,142.35 34.5,143.0C35.0,143.65 41.75,154.0 42.0,154.5C42.25,155.0 45.4,162.65 45.5,163.0C45.79032258064516,164.01612903225805 43.306451612903224,160.82258064516128 42.0,158.5C41.55,157.7 37.5,149.6 37.5,149.5C37.5,149.4 32.1,141.75 31.5,141.0C30.9,140.25 22.35,127.65 22.0,127.0C18.957095275659547,121.34889122622486 18.62122399460561,119.8470067490578 19.4282178217822,115.5C19.52103960396042,115.0 22.22103960396042,107.99240056818178 22.4282178217822,107.71377840909088C22.635396039603982,107.43515624999996 26.75,104.28515624999996 27.0,104.21377840909088C27.25,104.14240056818178 31.3,103.11428571428571 31.5,103.07142857142858C32.413580246913476,102.87566137566141 32.95679012345676,103.28306878306883 32.50000000000005,103.82142857142853C32.159700452804024,104.22249589490956 32.183261183261344,104.9999999999999 32.53571428571439,104.99999999999991C32.63928571428582,104.99999999999991 36.00312132358421,103.19465235067231 36.27330940715704,102.9940581674137L38.97519024288542,100.98811633482748 L36.73759512144271,107.74405816741374C36.51383560929844,108.41965235067237 33.2130631948508,115.25596840257461 33.07007021650088,115.33996489174957C32.92707723815097,115.42396138092454 32.02707723815097,117.67396138092452 32.07007021650088,117.83996489174957C32.113063194850795,118.00596840257462 35.09458185764886,122.3863389694962 35.38286873072096,122.70704329944022C35.67115560379305,123.02774762938424 40.83456762096039,126.46455020449153 41.11999319424022,126.5257128273372C41.40541876752006,126.58687545018289 46.91083690987119,126.19696505211525 47.237124463519265,126.0924790517065C47.563412017167344,125.98799305129775 52.74999999999995,122.7761904761905 52.99999999999994,122.52380952380955C53.249999999999936,122.27142857142859 56.60929319371714,120.00000000000006 56.73254799301906,120.00000000000006C56.85580279232098,120.00000000000004 60.80804763336955,117.32948968209702 61.12393114973969,117.03276631344113C63.1761544921873,115.10502209176494 63.97049451470072,113.26582765441576 63.39138315672057,111.78276631344112C63.30224484104851,111.554489682097 60.23499999999998,108.045 59.983333333333306,107.88333333333334C59.73166666666664,107.72166666666668 56.62132563075774,106.6893371846211 56.52739884899009,106.73630057550491C56.43347206722243,106.78326396638874 55.95881310313132,107.9205934484343 55.999999999999964,107.99999999999997C56.04118689686861,108.07940655156565 57.01402793277748,108.49298603361125 57.08093448434316,108.45953275782841C57.14784103590883,108.42607948204558 59.88749999999997,109.88136146496818 60.12499999999997,110.07651273885352C61.91644836710836,111.54852718492101 62.15898866155979,112.45456787809486 61.112116078259874,113.76401273885352C60.946073848609956,113.97170099791427 55.66389567959593,116.02404436068561 55.112116078259874,116.09525939177107C54.650904470433886,116.15478533094817 48.7,117.25331474271292 48.5,117.31584762706522C48.3,117.37838051141753 45.6097826086957,119.7480818414322 45.51086956521745,119.9488491048593C45.103610256023806,120.77547756695887 43.33881431467711,121.58853937404642 42.51086956521745,121.33098364184228C42.3097826086957,121.26842983211348 38.32598244787373,118.70022028215891 38.084424942081924,118.47741747522608L35.66884988416384,116.24938940589789 L37.584424942081924,109.87469470294894C37.77598244787373,109.23722523265405 40.4,98.775 40.5,98.25C40.833333333333336,96.50000000000001 40.833333333333336,91.20677128741644 40.5,90.31015693112465C40.093670143251956,89.21719338227382 36.53164928374021,86.39251842751989 34.5,85.55216971067736C34.0,85.34535529552016 28.60000000000003,82.36621405750799 28.500000000000032,82.24201277955272C28.16666666666675,81.82800851970187 28.166666666666757,81.00000000000004 28.500000000000046,81.00000000000004C28.600000000000044,81.00000000000004 30.77500000000002,82.27500000000005 30.916666666666686,82.41666666666671C31.05833333333335,82.55833333333338 32.858333333333334,83.57083333333334 32.91666666666667,83.54166666666667C32.975,83.5125 32.28500000000001,81.4275 32.15000000000002,81.225C31.828571428571472,80.74285714285718 31.511111111111155,78.48888888888888 31.73333333333336,78.26666666666667C31.955555555555584,78.04444444444444 33.74603174603175,79.49206349206347 34.08333333333334,80.16666666666666C34.22500000000001,80.44999999999999 36.27598280098281,82.99999999999999 36.36220311220312,82.99999999999999C36.448423423423435,82.99999999999999 36.89842342342344,82.32499999999999 36.86220311220312,82.25C36.82598280098281,82.175 35.6,79.55786257468768 35.5,79.34206952743075C35.166666666666664,78.62275936990767 35.166666666666664,75.28942603657434 35.5,74.34206952743075L36.5,71.5 L37.0,74.5C37.166666666666664,75.5 38.166666666666664,76.83333333333333 38.5,76.5C38.6,76.4 39.05,72.35 39.0,72.0C38.95,71.65 38.04999999999999,68.95 37.999999999999986,69.0C37.94999999999998,69.05 36.937499999999986,68.9375 36.874999999999986,68.875C36.81249999999999,68.8125 35.462500000000006,71.01750000000004 35.375,71.32500000000005C35.2875,71.63250000000006 34.00500000000001,74.58000000000008 33.95000000000002,74.60000000000008C33.89500000000002,74.62000000000009 32.545000000000016,73.09000000000003 32.45000000000002,72.90000000000003C32.35500000000001,72.71000000000004 29.700000000000003,71.0 29.5,71.0C28.325396825396822,71.0 28.531746031746028,70.66666666666667 30.0,70.1923076923077C30.316611897710644,70.0900176945858 31.534357220740038,68.84301046915455 31.39432989690718,68.76447264076128C31.2837628865979,68.70245836637588 28.25042955326456,68.64604810996562 28.023959526536807,68.70179457808322C27.79748949980905,68.75754104620083 26.365319865319872,69.86531986531988 26.432659932659945,69.93265993265994C26.500000000000014,70.00000000000001 24.133333333333354,73.3144835740225 23.80303030303032,73.61541945935159L20.5,76.62477831264255 L20.0,73.9913537501921C19.95,73.72801129394706 19.5,71.42186105325791 19.5,71.42896459387083C19.5,71.43606813448375 19.05,73.97500000000002 19.0,74.25000000000003C18.95,74.52500000000002 17.97751266069342,77.00000000000004 17.91945851188158,77.00000000000004C17.861404363069738,77.00000000000004 17.04546879491968,75.70123861475659 17.012863436159293,75.55693179417398C16.980258077398908,75.41262497359138 17.952745416705486,67.98762497359137 18.093404924277714,67.30693179417396C18.234064431849944,66.62623861475656 21.55961345939933,56.39065906562847 21.788459399332588,55.93406562847608C23.47948250933378,52.56013618788931 24.784806714573413,51.46394932410655 26.788459399332588,51.73515910631622C27.05961345939933,51.77186189125262 29.95,53.18120282562415 30.0,53.30109347784013C30.149576867779334,53.65975084252991 34.00423132220666,51.8428073504898 35.5,50.70859411781507C36.0,50.32945352959658 45.370331348181466,44.54424607616154 45.91147927575719,44.28058583622059C46.4526272033329,44.016925596279634 58.1526272033329,40.679190890246076 58.91147927575719,40.57199171840552C59.67033134818146,40.464792546564965 67.85,39.5 68.0,39.5C68.15,39.5 71.3,38.626762114537435 71.5,38.52973568281938zM33.52691043549713,58.3120377978636C33.824219391947416,58.23083401807724 39.2,57.105132450331126 39.5,57.061258278145694C42.34221494492408,56.645592185207015 42.315917435744765,56.69818720356565 39.0,58.061258278145694C38.65,58.20513245033113 30.452719850144426,61.86499599622502 29.891910944604916,62.12777332913891C29.331102039065406,62.3905506620528 24.081157823432463,64.1905506620528 24.058639593901646,64.1277733291389C24.03612136437083,64.06499599622502 26.857620906173818,61.53083401807724 27.19363908479386,61.3120377978636C27.5296572634139,61.09324157764996 33.22960147904684,58.39324157764997 33.52691043549713,58.3120377978636zM40.84414598496356,59.87604855358401C41.77572393569551,59.638443698225615 50.76295902075567,57.95 50.82996274614152,58.0C50.89696647152737,58.050000000000004 54.65,58.275000000000006 55.0,58.25000000000001C57.100000000000016,58.10000000000001 56.50000000000002,58.50000000000001 53.5,59.25000000000001C53.0,59.37500000000001 41.3,61.751109048270465 40.5,61.89012116474496C39.7,62.02913328121946 31.15,64.05413328121946 31.0,64.14012116474497C29.969768520176117,64.73070399468766 30.044631174761236,65.00000000000001 31.239041095890332,65.00000000000003C31.412945205479367,65.00000000000003 39.51294520547937,63.20000000000003 40.23904109589033,63.00000000000003C40.9651369863013,62.800000000000026 48.4,61.000000000000014 48.5,61.000000000000014C48.6,61.00000000000001 49.95,61.90000000000001 50.0,62.000000000000014C50.05,62.10000000000001 48.25,63.000000000000014 48.0,63.000000000000014C47.75,63.000000000000014 39.30387506961207,64.70614906255803 38.61541674401341,64.89572118062003C37.92695841841475,65.08529329868203 30.70315073353349,66.4357060231462 30.58896376081201,66.39617976335799C30.47477678809053,66.35665350356977 29.107974449722327,65.24172427283442 29.07029449595845,65.15736950698536C29.032614542194576,65.0730147411363 29.969187142015667,63.38604571489775 30.110930717981887,63.28295947783141C30.252674293948104,63.17987324076507 39.91256803423161,60.11365340894241 40.84414598496356,59.87604855358401zM42.45097530608011,68.25273639007875C42.64607283668812,68.03726768985486 44.13953381752584,65.70760787925113 44.1103763958998,65.66422548940794C44.08121897427376,65.62084309956475 47.72534119880166,65.35172087503685 48.159401089819696,65.36520079548804C48.593460980837726,65.37868071593923 60.15,66.85 61.0,67.0C61.85,67.15 72.79180425433881,69.63469321148825 73.15756028259868,69.76077023498695C73.52331631085855,69.88684725848563 80.15285541700382,72.9323081523404 80.52371484498231,73.14461567260335C80.99580231892074,73.41487365548758 83.47641216635633,76.02358783364373 83.36615456238363,76.13384543761643C83.25589695841093,76.24410304158913 83.31320189261602,77.81320189261605 83.43181818181819,77.93181818181822C83.65151515151514,78.15151515151517 85.70537694013309,77.74551921655579 86.11931818181822,77.40056818181819C86.29488636363641,77.25426136363636 88.51852064220189,76.25926032110087 88.59002293577987,76.29501146788986C88.66152522935785,76.33076261467886 86.8456863666376,79.07005659878139 86.57242419942403,79.33867145022602L83.8398025272884,82.02481996467228 L86.16990126364419,82.76240998233614C86.40291113727977,82.83616898410253 90.75,84.62500000000003 91.0,84.75000000000003C93.45238095238096,85.97619047619054 93.43333333333335,86.00000000000006 90.0,86.00000000000006C89.65,86.00000000000004 84.25,86.64285714285717 84.0,86.71428571428575C82.7051282051282,87.08424908424911 81.98205128205129,86.84322344322347 82.5,86.21428571428572C82.95098039215686,85.66666666666669 82.40196078431373,85.0 81.5,85.0C81.3,85.0 77.69999999999999,86.49534679486764 77.5,86.66149643874184C77.3,86.82764608261601 75.95,89.07764608261601 76.0,89.16149643874184C76.05,89.24534679486764 80.1,89.99999999999999 80.5,90.0C84.4689538807649,90.0 84.47671541057368,90.00758491810487 81.5,90.97724524568538C80.62073804801477,91.26366343311525 76.43503090195533,91.27056320197893 75.57889086069207,90.98700567159486C73.67032339059787,90.35487932274104 71.36384142840339,90.85539959405459 68.92485800034856,92.43097028401249C68.55156562824502,92.67211522723184 63.43501590841669,95.36949522747493 63.239802756094875,95.42805917317148C63.044589603773055,95.48662311886802 58.76916338409079,95.09787759421478 58.48932917867013,94.99611970133455C58.20949497324947,94.8943618084543 53.18863666845493,91.67374429989268 52.91059772889842,91.41765580293273C50.78375812914487,89.45872459263342 49.80830915199367,89.21085993280693 48.760756340579675,90.36316802536231C47.74118126226684,91.48470061150643 47.14970269512579,91.01650773445677 46.44565217391302,88.53061594202902C45.77143077278505,86.15004608682024 46.21757560621337,84.2360687210185 48.0,81.86240791896871C48.25,81.52948204419891 52.1578,77.83783204419889 52.342,77.76057458563535C53.93538951435613,77.09227260745435 54.07035720471654,77.76487402571448 53.342,82.744L52.5,88.5 L54.30505617977527,85.30786516853932C54.4855617977528,84.98865168539325 57.56056179775276,81.61365168539326 57.7217228464419,81.55786516853934C57.88288389513104,81.50207865168541 61.24047619047621,81.00000000000003 61.45238095238098,81.00000000000003C61.66428571428575,81.00000000000001 67.76497500378738,82.40742311770944 68.2309246073828,82.5638034641216C72.54703195189111,84.01236003864837 73.12946849960156,83.96404786869367 76.13409921055731,81.90824790856604C76.45846706727934,81.68631200659831 78.6918605916691,79.34593029583456 78.61564757099038,79.3078237854952C78.53943455031164,79.26971727515583 68.69443455031167,77.79876027417464 67.67675868210151,77.67342711773833C66.65908281389136,77.54809396130202 53.9,75.10605255435634 53.5,74.96004777668757C53.1,74.81404299901881 47.66561135371179,73.21408296943233 47.4617903930131,73.18231441048036C47.25796943231441,73.15054585152839 44.56256126904911,74.15615809642637 44.46689243382943,74.29966134925587C44.37122359860975,74.44316460208539 42.60561224489797,75.17908163265307 42.50510204081633,75.11734693877551C42.404591836734696,75.05561224489797 41.05,72.65834052654296 41.0,72.45371169615885C40.90991386492618,72.08502728707923 42.09946365618167,68.64095123872976 42.45097530608011,68.25273639007875zM122.5,77.0C122.6,76.85 123.5,75.47718115412712 123.5,75.4746457268079C123.5,75.47211029948869 123.95,75.94492914536157 124.0,76.0C124.05,76.05507085463842 123.15,77.4278897005113 123.0,77.52535427319208C122.10795207221241,78.10497474047611 121.90530138147494,77.89204792778759 122.5,77.0zM125.5,79.5C125.5,79.3 125.5,77.05 125.5,77.0C125.5,76.95 128.61910540915395,78.20294729542302 128.9656726768377,78.39216366158112C130.85796129557514,79.42530213006036 131.76594321124523,80.65486097419694 130.9656726768377,81.10049699491444C129.8657541928259,81.71299398843621 129.87432047271466,82.2389981848376 131.0,83.20833333333331C131.15,83.33749999999999 132.5,85.4 132.5,85.5C132.5,85.6851851851852 130.6666666666667,85.48148148148152 130.25000000000003,85.25000000000003C130.02500000000003,85.12500000000003 126.87500000000003,82.87500000000003 126.75000000000003,82.75000000000003C126.62500000000003,82.62500000000003 125.5,79.7 125.5,79.5zM137.66666666666657,84.75000000000003C137.74999999999991,84.42500000000003 138.5,81.5 138.5,81.5C138.5,81.5 138.95,84.42500000000003 139.0,84.75000000000003C139.20512820512823,86.08333333333357 138.71367521367523,88.00000000000007 138.16666666666657,88.00000000000006C137.48290598290578,88.00000000000006 137.23931623931605,86.41666666666694 137.66666666666657,84.75000000000003zM78.0,83.24999999999997C78.15,83.17499999999997 81.75,82.09499999999997 82.0,82.04999999999995C84.18253968253968,81.65714285714279 84.24603174603175,81.75238095238088 82.5,82.79999999999994C82.3,82.91999999999994 78.7,83.99999999999996 78.5,83.99999999999994C77.38888888888891,83.99999999999994 77.16666666666669,83.66666666666661 78.0,83.24999999999997zM122.5,84.42124899072866C122.5,84.31337388980153 122.95,82.96337388980152 123.0,82.92124899072866C123.05,82.8791240916558 123.5,83.4 123.5,83.5C123.5,83.6 124.85,85.85 125.0,86.0C125.15,86.15 128.14501254705146,90.35216436637391 128.32779171894606,90.66907151819325C129.8804285084927,93.36107245946489 130.55785645034337,93.66215154473184 132.82779171894606,92.66907151819325C133.09501254705145,92.55216436637392 137.3,90.15 137.5,90.0C139.18627450980395,88.73529411764704 139.34313725490196,88.7843137254902 138.5,90.31250000000006C138.4,90.49375000000006 135.89730997038498,92.57205700888458 135.71923330042776,92.62173000987175C135.54115663047054,92.67140301085892 130.14115663047053,96.89015301085887 129.71923330042776,97.3092300098717L125.5,101.5 L126.35916442048517,97.0C126.99227245571531,93.68400356135928 126.59760460192888,91.57910834116501 124.85916442048517,89.0C124.62324797843665,88.65 122.5,84.52912409165579 122.5,84.42124899072866zM60.5,84.00000000000004C60.3,84.00000000000004 59.572058823529375,83.5235294117647 59.69117647058819,83.4705882352941C59.81029411764701,83.4176470588235 61.610294117647015,83.41764705882352 61.69117647058819,83.47058823529412C61.77205882352937,83.52352941176471 60.7,84.00000000000004 60.5,84.00000000000004zM85.0,85.00000000000006C84.75,85.00000000000006 83.62499999999996,84.5090909090909 83.74999999999994,84.45454545454544C83.87499999999994,84.39999999999999 86.12499999999994,84.40000000000005 86.24999999999994,84.4545454545455C86.37499999999996,84.50909090909096 85.25,85.00000000000006 85.0,85.00000000000006zM22.5,88.16198375084628C22.7,88.09578537576165 27.2478346456693,87.23248031496063 27.553149606299222,87.20275590551181C28.448020138851977,87.11563440298733 32.25262271709582,88.34604487745882 32.93522507799734,88.94332194324764C33.16811766453723,89.14710295647005 36.27028301886792,91.54614065180105 36.382075471698116,91.60891938250433C36.4938679245283,91.67169811320758 32.973812351543884,91.58078250347337 32.470902612826535,91.50790203835518C30.288638885962612,91.1916536478786 25.760058997936916,91.596384147448 24.470902612826535,92.22288202691998C24.173812351543884,92.36726049089464 19.561115876996176,95.42881527429496 19.34568430777353,95.62460956403146C18.69099674652052,96.21962025126444 17.041605090110824,96.73535569078209 16.976223336323066,96.36549787323445C16.954708808400667,96.24379241441825 18.44359293140449,92.30242918255153 18.630539028549535,91.98620539338253C18.81748512569458,91.66998160421355 22.3,88.22818212593091 22.5,88.16198375084628zM61.5,88.5C61.8,88.4 69.0,87.20833333333334 69.5,87.17592592592594C70.0,87.14351851851853 74.02014978601981,87.2709436255086 73.96683309557757,87.31750937813712C73.91351640513533,87.36407513076564 67.61351640513533,88.55574179743229 66.96683309557757,88.64158345221118C66.32014978601981,88.72742510699007 57.8,90.4 57.5,90.5C56.5,90.83333333333333 55.833333333333336,90.83333333333333 56.5,90.5C56.7,90.4 61.2,88.6 61.5,88.5zM128.5,96.0C128.6,95.85 129.5,94.45781892262205 129.5,94.45313213624672C129.5,94.4484453498714 129.95,94.94062642724934 130.0,95.0C130.05,95.05937357275064 129.15,96.45155465012859 129.0,96.54686786375326C128.11445570981076,97.10956167778605 127.90963713987384,96.88554429018924 128.5,96.0zM28.5,97.22619047619052C28.8,97.15357142857147 32.265000000000015,95.78 32.35000000000002,95.69999999999999C32.435000000000024,95.61999999999999 36.03500000000002,95.52166083916083 36.35000000000002,95.59073426573426L39.5,96.28146853146853 L36.0,97.46895739096512C35.65,97.58770627691477 28.45,99.31104543775393 28.0,99.3837786807864C26.096430224534572,99.6914515765824 24.076984494341016,99.48833419658433 24.5,99.03174603174608C24.6,98.92380952380958 28.2,97.29880952380958 28.5,97.22619047619052zM54.43223840874073,97.84111920437037C54.125462249614806,97.67523112480741 51.08025898506291,95.65023112480739 51.048679225905296,95.59111920437036C51.01709946674768,95.53200728393332 51.565289623290425,94.99999999999996 51.65777939984169,94.99999999999994C51.75026917639294,94.99999999999994 54.795472440944835,97.02499999999996 55.04133858267712,97.24999999999997L57.5,99.5 L54.43223840874073,97.84111920437037zM64.96188166464403,100.84204486351788C64.60806983110842,100.67624934986968 61.08101685722862,98.63078715385763 61.04293391588868,98.56930909017117C61.00485097454875,98.50783102648471 63.44637772503704,98.157548375784 63.755741416431235,98.18010614494817C64.50549838402945,98.23477592383554 68.19749852240479,100.22271539976288 68.62873328283366,100.80394485947137C68.80666877807971,101.04377096175953 69.5494485294118,102.88621323529412 69.4540441176471,102.85110294117648C69.35863970588238,102.81599264705883 65.31569349817963,101.0078403771661 64.96188166464403,100.84204486351788zM27.53745833015252,119.39212917016569C27.71704583047062,119.20291625314911 29.531729524286934,117.32580190452322 29.55377354550398,117.30644656058135C29.575817566721025,117.2870912166395 29.98417270983612,117.93781508637062 30.00750148229853,118.02947308250484C30.030830254760936,118.12113107863905 29.007434063807437,121.22032917411582 28.870394603461307,121.47302652192347C28.733355143115176,121.72572386973113 26.96847723704866,123.99999999999999 26.909419152276286,123.99999999999999C26.850361067503915,123.99999999999999 26.059073564641103,122.77791625314912 26.030210815762054,122.64212917016567C26.001348066883,122.50634208718225 27.35787082983442,119.58134208718226 27.53745833015252,119.39212917016569zM35.0,119.20833333333334C34.85,119.07916666666668 33.95000000000003,117.6166666666667 34.00000000000003,117.58333333333337C34.05000000000003,117.55000000000004 35.400000000000034,118.71250000000002 35.50000000000003,118.87500000000003C36.196969696969695,120.00757575757575 36.04545454545453,120.10858585858585 35.0,119.20833333333334zM54.5,128.0C55.0,127.85 61.75,126.1538461538461 62.0,126.11538461538456C62.25,126.07692307692301 64.04170702179194,126.19356956602708 63.99078557976881,126.2449918255002C63.939864137745694,126.2964140849733 56.48541546002252,128.66756793112725 55.70806482674307,128.8796072101157C54.930714193463615,129.09164648910414 45.939007171671676,131.00000000000009 45.71727924697426,131.00000000000009C44.74665072961835,131.00000000000009 45.186730344839816,130.57831741379007 46.5,130.25000000000003C46.8,130.175 54.0,128.15 54.5,128.0zM62.41933190782737,132.11909988398807C62.52739871704463,131.95718989558927 63.77499999999994,130.25000000000003 63.80555555555549,130.22222222222223C63.836111111111045,130.19444444444446 65.1581068192655,130.767083929423 65.27443967572711,130.85848831664282C65.51401735309427,131.04672792028845 67.43415286635617,131.04788882446815 67.6925683306979,130.8599503049469C67.92765253254059,130.68897997633402 69.67982456140342,130.67982456140345 69.8486842105263,130.84868421052633C69.93881578947367,130.9388157894737 71.44107142857149,131.0589285714286 71.5178571428572,130.98214285714286C71.59464285714292,130.90535714285713 73.28214285714292,130.48944002731415 73.3928571428572,130.52001272876174C73.50357142857148,130.55058543020937 74.95,132.46802729732295 75.0,132.65050369222132C75.30341092395614,133.75781032374712 74.66024913196075,134.23864070256667 73.36419753086415,133.8734362897382C73.15061728395057,133.81325315459156 70.45704585537908,134.04295414462086 70.37134038800696,134.128659611993C70.28563492063482,134.2143650793651 68.37136990645303,134.59008958300305 68.24437926113829,134.5461312827018C68.11738861582356,134.50217298240054 65.41096004439504,134.7336015538291 65.2372364039955,134.80327413984463C65.06351276359594,134.87294672586017 61.42525706940866,136.61169665809774 61.194730077120724,136.7352185089975C60.9642030848328,136.8587403598972 55.1142030848328,139.1087403598972 54.694730077120724,139.2352185089975C54.27525706940865,139.36169665809774 48.409146341463426,140.65914634146347 48.1768292682927,140.67682926829275C47.94451219512197,140.694512195122 45.24451219512197,140.244512195122 45.1768292682927,140.17682926829275C45.10914634146343,140.10914634146346 44.05,137.7 44.0,137.5C43.611111111111114,135.94444444444446 43.833333333333336,135.83333333333334 45.0,137.0C45.88911431766599,137.88911431766599 46.30887260353278,137.9286850485236 46.03069599928176,137.09716399975136C45.89663235992699,136.6964231168196 46.61840853899768,136.06021834042227 47.04111266594843,136.2065389997514C47.18908473268692,136.25776009977625 49.32491987179487,135.5126201923077 49.41426282051282,135.37860576923077C49.972335534835544,134.5414966977467 50.90682297274225,134.6881212957446 51.90384615384616,135.76923076923077C53.09114157854109,137.05665954299636 53.37309104404739,137.08316898288902 53.004556571362,135.87272171431897C52.955012228498205,135.70999388575086 53.71438722849816,133.64280638575087 53.84830657136196,133.57584671431897C53.98621474832667,133.50689262583663 56.67319180189849,134.51808544545597 56.84374999999996,134.703125C58.347490791896874,136.33454189686927 58.45395948434623,136.29281767955803 58.0,134.25000000000003C57.80395558587749,133.36780013644875 58.424398884278105,132.00000000000006 59.020615062245774,132.00000000000006C59.17267656847035,132.00000000000003 60.90007528551499,132.78218989558928 60.93994697007315,132.8690998839881C60.97981865463131,132.9560098723869 62.311265098610114,132.28100987238687 62.41933190782737,132.11909988398807zM86.0,133.74999999999997C85.95,133.57499999999996 85.95,131.77499999999998 86.0,131.74999999999997C86.05,131.72499999999997 86.5,133.3 86.5,133.5C86.5,134.8333333333334 86.33333333333336,134.9166666666667 86.0,133.74999999999997zM35.27503100169936,151.11253616864926C35.0525341018693,150.8737897855142 32.97122598569436,148.37063572742673 32.96246642817165,148.33125388188543C32.95370687064894,148.29187203634413 33.606178969119576,148.30308948455988 33.687435426472355,148.34371771323626C33.768691883825134,148.38434594191264 35.85000000000007,150.8875000000001 36.000000000000064,151.12500000000009L37.5,153.5 L35.27503100169936,151.11253616864926zM57.55839895013125,155.38517060367454C58.25255905511813,155.2966535433071 67.65,154.17272261443867 68.0,154.1363584604874C71.42728121587358,153.78027222686373 71.3963794078629,153.82588281748895 66.5126768917181,156.33162436194593C63.39643743661004,157.93051181246662 59.83234216561508,158.65794093518275 57.0126768917181,158.27056710627775C56.561409202546294,158.2085706366138 51.652559055118125,157.02948486860822 51.55839895013125,156.96047180849376C51.46423884514438,156.8914587483793 56.86423884514438,155.473687664042 57.55839895013125,155.38517060367454zM78.5,159.0C78.7,158.75 80.54042067758468,156.36728966120765 80.54491186398297,156.3525440680085C80.54940305038127,156.33779847480935 80.90971813946405,156.8250359005737 80.94526196296383,156.89391898552446C80.98080578646362,156.96280207047522 79.14038510887895,159.34551240926757 78.90035009898085,159.54137491751595L76.5,161.5 L78.5,159.0z"/></svg>